<svg width="127" height="86" viewBox="0 0 127 86" fill="none" xmlns="http://www.w3.org/2000/svg">
<path d="M65.128 28.5367L121.694 67.3416L121.693 67.3419L122.259 67.7306C125.839 70.1901 127.322 74.4671 126.052 78.6433C124.764 82.8177 121.16 85.5 116.823 85.5H10.2196C5.86505 85.5 2.24274 82.8008 0.954897 78.6071L0.476928 78.7539L0.95489 78.6071C-0.33254 74.4156 1.16727 70.1211 4.7644 67.6617L4.7651 67.6612L61.7762 28.5388L61.7851 28.5327L61.7938 28.5262C61.8218 28.5051 61.8473 28.4919 61.9217 28.4534L61.9309 28.4486L62.1993 28.3096L62.201 28.0073L62.2364 21.5725C62.2513 21.2055 62.3935 20.9051 62.6093 20.7099L62.6204 20.6999L62.6309 20.6892C62.7321 20.5859 62.8653 20.4982 63.0198 20.4341L63.0353 20.4276L63.0503 20.4202C63.173 20.3593 63.3005 20.3335 63.4688 20.3335H63.4855H63.5023C68.2535 20.3335 72.1148 16.4392 72.1148 11.6626C72.1148 6.88602 68.2535 2.9917 63.5023 2.9917C58.7511 2.9917 54.8897 6.88602 54.8897 11.6626C54.8897 12.3489 54.3312 12.9074 53.6573 12.9074C52.9694 12.9074 52.4249 12.3537 52.4249 11.6626C52.4249 5.50981 57.3872 0.5 63.5043 0.5C69.6039 0.5 74.5836 5.5113 74.5836 11.6626C74.5836 17.2617 70.467 21.9057 65.1305 22.6897L64.7063 22.752L64.7032 23.1807L64.6677 27.982L64.6652 28.3266L64.9864 28.4516C65.0215 28.4653 65.0686 28.4922 65.1076 28.522L65.1176 28.5296L65.128 28.5367ZM116.823 83.007H117.297L117.298 82.9909C124.031 82.5903 126.577 73.7037 120.867 69.8029L63.7362 30.5923L63.6084 30.5045H63.4533H63.4366H63.2814L63.1536 30.5923L6.16045 69.717C0.284818 73.7434 3.10119 83.007 10.2218 83.007H116.823Z" fill="#CFCFCF" stroke="white"/>
</svg>
