<svg width="16" height="15" viewBox="0 0 16 15" fill="none" xmlns="http://www.w3.org/2000/svg">
<path fill-rule="evenodd" clip-rule="evenodd" d="M2.91421 5.98755L6.19465 9.26798L5.48755 9.97509L1.35355 5.8411L1 5.48755L1.35355 5.13399L5.48755 1L6.19465 1.70711L2.91421 4.98755H7.61281C11.7867 4.98755 15.1997 8.40048 15.1997 12.5744L15.1997 14.3461L14.1997 14.3461L14.1997 12.5744C14.1997 8.95277 11.2344 5.98755 7.61281 5.98755H2.91421Z" fill="white"/>
<path d="M6.19465 9.26798L6.5482 9.62154L6.90176 9.26798L6.54821 8.91443L6.19465 9.26798ZM2.91421 5.98755V5.48755H1.70711L2.56066 6.3411L2.91421 5.98755ZM5.48755 9.97509L5.13399 10.3286L5.48755 10.6822L5.8411 10.3286L5.48755 9.97509ZM1.35355 5.8411L1 6.19465H1L1.35355 5.8411ZM1 5.48755L0.646447 5.13399L0.292893 5.48755L0.646446 5.8411L1 5.48755ZM1.35355 5.13399L1.70711 5.48755H1.70711L1.35355 5.13399ZM5.48755 1L5.8411 0.646447L5.48755 0.292893L5.13399 0.646447L5.48755 1ZM6.19465 1.70711L6.54821 2.06066L6.90176 1.70711L6.54821 1.35355L6.19465 1.70711ZM2.91421 4.98755L2.56066 4.63399L1.70711 5.48755H2.91421V4.98755ZM15.1997 12.5744H14.6997H15.1997ZM15.1997 14.3461L15.1997 14.8461L15.6997 14.8461L15.6997 14.3461L15.1997 14.3461ZM14.1997 14.3461H13.6997L13.6997 14.8461H14.1997L14.1997 14.3461ZM14.1997 12.5744H13.6997H14.1997ZM6.54821 8.91443L3.26777 5.63399L2.56066 6.3411L5.8411 9.62154L6.54821 8.91443ZM5.8411 10.3286L6.5482 9.62154L5.8411 8.91443L5.13399 9.62154L5.8411 10.3286ZM1 6.19465L5.13399 10.3286L5.8411 9.62154L1.70711 5.48755L1 6.19465ZM0.646446 5.8411L1 6.19465L1.70711 5.48755L1.35355 5.13399L0.646446 5.8411ZM1 4.78044L0.646447 5.13399L1.35355 5.8411L1.70711 5.48755L1 4.78044ZM5.13399 0.646447L1 4.78044L1.70711 5.48755L5.8411 1.35355L5.13399 0.646447ZM6.54821 1.35355L5.8411 0.646447L5.13399 1.35355L5.8411 2.06066L6.54821 1.35355ZM3.26777 5.3411L6.54821 2.06066L5.8411 1.35355L2.56066 4.63399L3.26777 5.3411ZM7.61281 4.48755H2.91421V5.48755H7.61281V4.48755ZM15.6997 12.5744C15.6997 8.12434 12.0629 4.48755 7.61281 4.48755V5.48755C11.5106 5.48755 14.6997 8.67662 14.6997 12.5744H15.6997ZM15.6997 14.3461L15.6997 12.5744L14.6997 12.5744L14.6997 14.3461L15.6997 14.3461ZM14.1997 14.8461L15.1997 14.8461L15.1997 13.8461L14.1997 13.8461L14.1997 14.8461ZM13.6997 12.5744L13.6997 14.3461L14.6997 14.3461L14.6997 12.5744L13.6997 12.5744ZM7.61281 6.48755C10.9583 6.48755 13.6997 9.22891 13.6997 12.5744H14.6997C14.6997 8.67662 11.5106 5.48755 7.61281 5.48755V6.48755ZM2.91421 6.48755H7.61281V5.48755H2.91421V6.48755Z" fill="white"/>
</svg>
