<?xml version="1.0" encoding="utf-8"?>
<!-- Generator: Adobe Illustrator 24.0.2, SVG Export Plug-In . SVG Version: 6.00 Build 0)  -->
<svg version="1.1" id="Layer_3" xmlns="http://www.w3.org/2000/svg" xmlns:xlink="http://www.w3.org/1999/xlink" x="0px" y="0px"
	 viewBox="0 0 32 32" style="enable-background:new 0 0 32 32;" xml:space="preserve">
<style type="text/css">
	.st0{fill:#0A0A0A;}
</style>
<g>
	<path class="st0" d="M16.3,1.1c-3.9,0-7.7,1.6-10.4,4.3S1.6,12,1.6,15.9s1.6,7.7,4.3,10.4s6.5,4.3,10.4,4.3s7.7-1.6,10.4-4.3
		S31,19.8,31,15.9c0-3.9-1.6-7.6-4.3-10.4C23.9,2.7,20.2,1.2,16.3,1.1L16.3,1.1z M16.3,29.1c-3.5,0-6.9-1.4-9.3-3.9
		s-3.9-5.8-3.9-9.3S4.5,9,6.9,6.5s5.8-3.9,9.3-3.9s6.9,1.4,9.3,3.9s3.9,5.8,3.9,9.3c0,3.5-1.4,6.8-3.9,9.3S19.8,29.1,16.3,29.1
		L16.3,29.1z"/>
	<path class="st0" d="M21,15.1h-9.5c-0.4,0-0.8,0.3-0.8,0.8s0.3,0.8,0.8,0.8H21c0.4,0,0.8-0.3,0.8-0.8S21.4,15.1,21,15.1z"/>
	<path class="st0" d="M15.5,11.1v9.5c0,0.4,0.3,0.8,0.8,0.8c0.4,0,0.8-0.3,0.8-0.8v-9.5c0-0.4-0.3-0.8-0.8-0.8
		C15.9,10.4,15.5,10.7,15.5,11.1z"/>
</g>
</svg>
