<svg width="62" height="54" viewBox="0 0 62 54" fill="none" xmlns="http://www.w3.org/2000/svg">
<path d="M58.335 43.4446C57.4599 43.9541 56.4591 44.2238 55.443 44.2238H44.3705C43.8133 44.2238 43.3621 43.77 43.3621 43.2154C43.3621 42.6607 43.8159 42.2069 44.3705 42.2069H55.4397C56.0147 42.2069 56.5693 42.0532 57.0789 41.8033L42.5224 27.3074C42.129 26.9165 42.1264 26.2761 42.5199 25.8827C42.9133 25.4892 43.5511 25.4867 43.9446 25.8801L58.5767 40.4495C58.5792 40.4445 58.5818 40.4419 58.5843 40.4394C58.9148 39.8721 59.0862 39.2241 59.0862 38.5609L59.0858 5.96723C59.0858 5.21077 58.8992 4.58053 58.4957 4.02842C42.8315 17.019 33.7421 24.1027 31.4522 25.1034C31.3665 25.1511 31.2682 25.184 31.1673 25.2043C31.1145 25.2195 31.0664 25.2271 31.0259 25.2271C31.0031 25.2245 30.9854 25.2271 30.9706 25.2271C30.9301 25.2271 30.8824 25.2195 30.8245 25.2043C30.7211 25.1815 30.6202 25.1464 30.532 25.0958C28.2246 24.0772 19.1397 16.9968 3.50368 4.02839C3.49355 4.04612 3.47836 4.05625 3.46823 4.07145C3.10014 4.56069 2.91355 5.19857 2.91355 5.96767V38.5559C2.91355 39.2217 3.08493 39.8696 3.41546 40.4345C3.41799 40.4395 3.42052 40.4395 3.42306 40.4446L18.053 25.8752C18.4464 25.4818 19.0843 25.4843 19.4777 25.8777C19.8711 26.2711 19.8686 26.9115 19.4752 27.3024L4.91875 41.8016C5.42825 42.0511 5.98295 42.2052 6.55789 42.2052H17.6325C18.1897 42.2052 18.6409 42.659 18.6409 43.2136C18.6409 43.7683 18.1871 44.2221 17.6325 44.2221H6.55789C5.54182 44.2221 4.53803 43.9549 3.66335 43.4403C2.8136 42.9435 2.16308 42.2904 1.67386 41.4508C1.16688 40.5783 0.894608 39.5774 0.894608 38.5563L0.894186 5.96802C0.894186 4.77044 1.22682 3.69615 1.80683 2.92694C2.33872 2.08733 3.08039 1.40387 3.83944 1.02315C4.6816 0.533905 5.54655 0.304688 6.55751 0.304688H55.4399C56.4535 0.304688 57.3184 0.534327 58.1028 0.993184C58.9145 1.40138 59.6558 2.08486 60.1476 2.86153C60.7753 3.69862 61.1058 4.77505 61.1058 5.96799V38.5563C61.1058 39.5723 60.8386 40.5761 60.3266 41.4508C59.8348 42.2984 59.1817 42.9489 58.3345 43.4454L58.335 43.4446ZM6.55968 2.32344C6.005 2.32344 5.53854 2.45219 5.05184 2.689C14.5933 10.5913 29.2337 22.4402 30.9325 23.1912C33.0508 22.2051 47.5065 10.5075 56.9547 2.68576C56.4882 2.44894 56.0167 2.32272 55.4418 2.32272L6.55968 2.32344Z" fill="#4D4D4D"/>
<path d="M40.796 43.2178C40.796 48.6189 36.4007 53.0137 31 53.0137C25.5989 53.0137 21.2041 48.6185 21.2041 43.2178C21.2041 37.8167 25.5989 33.4219 31 33.4219C36.4011 33.4219 40.796 37.8167 40.796 43.2178V43.2178ZM23.2234 43.2178C23.2234 47.507 26.7107 50.9943 30.9999 50.9943C35.2892 50.9943 38.7764 47.507 38.7764 43.2178C38.7764 38.9286 35.2892 35.4413 30.9999 35.4413C26.7107 35.4413 23.2234 38.9286 23.2234 43.2178Z" fill="#4D4D4D"/>
<path d="M32.0083 37.7819V42.2097L36.4365 42.2101C36.9937 42.2101 37.4449 42.6639 37.4449 43.2186C37.4449 43.7733 36.9911 44.227 36.4365 44.227H32.0083V48.6548C32.0083 49.212 31.5545 49.6633 30.9998 49.6633C30.4451 49.6633 29.9913 49.2095 29.9913 48.6548V44.227H25.5635C25.0063 44.227 24.5551 43.7733 24.5551 43.2186C24.5551 42.6639 25.0089 42.2101 25.5635 42.2101H29.9913V37.7819C29.9913 37.2247 30.4451 36.7734 30.9998 36.7734C31.5545 36.7734 32.0083 37.2247 32.0083 37.7819V37.7819Z" fill="#4D4D4D"/>
</svg>
