<?xml version="1.0" encoding="utf-8"?>
<!-- Generator: Adobe Illustrator 24.0.2, SVG Export Plug-In . SVG Version: 6.00 Build 0)  -->
<svg version="1.1" id="Layer_1" xmlns="http://www.w3.org/2000/svg" xmlns:xlink="http://www.w3.org/1999/xlink" x="0px" y="0px"
	 viewBox="0 0 32 32" style="enable-background:new 0 0 32 32;" xml:space="preserve">
<style type="text/css">
	.st0{fill-rule:evenodd;clip-rule:evenodd;}
</style>
<g id="Layer_2_1_">
</g>
<path class="st0" d="M16.8,2.8c-2,0-4.1,0.7-5.7,2.1c-3.3,2.8-4.1,7.5-2,11.3l6.5,9.3c0.2,0.4,0.7,0.7,1.2,0.7s1-0.3,1.2-0.7
	l6.5-9.3c2.2-3.7,1.3-8.5-2-11.3C20.9,3.5,18.8,2.8,16.8,2.8L16.8,2.8z M16.8,4c1.8,0,3.6,0.6,5,1.8c2.9,2.4,3.6,6.6,1.7,9.9
	L17.1,25c-0.1,0.1-0.1,0.1-0.2,0.1c-0.1,0-0.2-0.1-0.2-0.1l-6.5-9.3c-1.9-3.3-1.2-7.4,1.7-9.9C13.2,4.6,15,4,16.8,4L16.8,4z
	 M12.9,8.4c-0.3,0-0.6,0.2-0.6,0.6c0,0.3,0.2,0.6,0.6,0.6h7.8c0.3,0,0.6-0.2,0.6-0.6c0-0.3-0.2-0.6-0.6-0.6H12.9z M12.9,11.2
	c-0.3,0-0.6,0.2-0.6,0.6c0,0.3,0.2,0.6,0.6,0.6h7.8c0.3,0,0.6-0.2,0.6-0.6c0-0.3-0.2-0.6-0.6-0.6H12.9z M12.9,14
	c-0.3,0-0.6,0.2-0.6,0.6c0,0.3,0.2,0.6,0.6,0.6h5.6c0.3,0,0.6-0.2,0.6-0.6c0-0.3-0.2-0.6-0.6-0.6H12.9z M20.7,14
	c-0.3,0-0.6,0.2-0.6,0.6c0,0.1,0.1,0.3,0.2,0.4c0.1,0.1,0.2,0.2,0.4,0.2s0.3-0.1,0.4-0.2c0.1-0.1,0.2-0.2,0.2-0.4
	c0-0.1-0.1-0.3-0.2-0.4C21,14,20.9,14,20.7,14z M12.1,23.2c-0.1,0-0.2,0-0.2,0.1c-1,0.5-1.8,1.1-2.1,1.9c-0.3,0.8-0.1,1.7,0.5,2.4
	c1.2,1.4,3.8,2.1,6.6,2.1s5.3-0.7,6.6-2.1c0.6-0.7,0.8-1.6,0.5-2.4c-0.3-0.8-1.1-1.4-2.1-1.9c-0.1,0-0.2-0.1-0.2-0.1
	c-0.3,0-0.6,0.2-0.6,0.6c0,0.2,0.1,0.4,0.3,0.5c0.9,0.4,1.4,0.9,1.6,1.3c0.2,0.4,0.1,0.7-0.3,1.2c-0.8,0.9-3.2,1.7-5.8,1.7
	s-4.9-0.8-5.8-1.7c-0.4-0.5-0.5-0.8-0.3-1.2c0.2-0.4,0.7-0.9,1.6-1.3c0.2-0.1,0.3-0.3,0.3-0.5C12.6,23.5,12.4,23.2,12.1,23.2
	L12.1,23.2z"/>
</svg>
