<?xml version="1.0" encoding="utf-8"?>
<!-- Generator: Adobe Illustrator 24.0.2, SVG Export Plug-In . SVG Version: 6.00 Build 0)  -->
<svg version="1.1" id="Layer_1" xmlns="http://www.w3.org/2000/svg" xmlns:xlink="http://www.w3.org/1999/xlink" x="0px" y="0px"
	 viewBox="0 0 32 32" style="enable-background:new 0 0 32 32;" xml:space="preserve">
<style type="text/css">
	.st0{fill:#0A0A0A;}
</style>
<g>
	<path class="st0" d="M16.7,26.1L16,26.7l-7.6-6.3c-2.7-2.5-4.6-4.9-4.6-8.1C3.8,8.2,7,4.8,11,4.8c1.6,0,3.1,0.5,4.3,1.5
		c0.3,0.3,0.8,0.3,1.1,0c1.2-1,2.8-1.5,4.3-1.5c4,0,7.3,3.4,7.3,7.5c0,1.8-0.6,3.3-1.5,4.7c0.5,0.3,1,0.7,1.5,1.2
		c1.1-1.7,1.9-3.6,1.9-5.9c0-5.2-4.1-9.5-9.1-9.5c-1.7,0-3.5,0.5-4.9,1.5c-1.5-1-3.1-1.5-4.9-1.5c-5,0-9.1,4.2-9.1,9.5
		c0,4.2,2.5,7.1,5.2,9.6l0,0l8.2,6.8c0.2,0.1,0.4,0.2,0.6,0.2s0.4-0.1,0.6-0.2l1.2-1C17.4,27.3,17,26.7,16.7,26.1z"/>
</g>
<g>
	<path class="st0" d="M21.6,27.6v-3.8h-3.8v-1.6h3.8v-3.8h1.6v3.8H27v1.6h-3.8v3.8H21.6z"/>
</g>
</svg>
