<?xml version="1.0" encoding="utf-8"?>
<!-- Generator: Adobe Illustrator 24.0.2, SVG Export Plug-In . SVG Version: 6.00 Build 0)  -->
<svg version="1.1" xmlns="http://www.w3.org/2000/svg" xmlns:xlink="http://www.w3.org/1999/xlink" x="0px" y="0px"
	 viewBox="0 0 32 32" style="enable-background:new 0 0 32 32;" xml:space="preserve">
<style type="text/css">
	.st0{fill:#0A0A0A;}
</style>
<g id="Layer_2">
</g>
<g id="icon-bag">
	<path class="st0" d="M10.7,8.4c0-1.7-0.1-3,1.3-4.5c1.5-1.5,3-1.3,4.9-1.3c2.5,0,4.4,2.1,4.4,4.5C21.3,8,21.5,9,20.7,9
		s-0.6-1-0.6-1.9c0-1.8-1.4-3.3-3.2-3.3c-1.6,0-2.9-0.2-4,1c-1.1,1.1-1,2.2-1,3.6C11.9,9.2,10.7,9.2,10.7,8.4L10.7,8.4z"/>
	<path class="st0" d="M24.5,11.9H7.4l-3.3,16h23.8L24.5,11.9z M11.5,17.8c-2,0-2-3.1,0-3.1S13.5,17.8,11.5,17.8z M20.5,17.8
		c-2.1,0-2.1-3.1,0-3.1C22.5,14.7,22.5,17.8,20.5,17.8z"/>
	<path class="st0" d="M3,28.2l3.5-17c0-0.3,0.3-0.5,0.6-0.5H25c0.3,0,0.5,0.2,0.6,0.5l3.5,17c0.1,0.4-0.2,0.8-0.6,0.8H3.6
		C3.2,28.9,2.9,28.5,3,28.2L3,28.2z M27.7,27.7l-3.2-15.8H7.6L4.3,27.7H27.7z"/>
</g>
</svg>
