<svg width="54" height="30" viewBox="0 0 54 30" fill="none" xmlns="http://www.w3.org/2000/svg">
<rect opacity="0.3" width="54" height="30" fill="white"/>
<path d="M46.0355 26.606H7V28.1922H46.0355V26.606Z" fill="#5A5A5A"/>
<path d="M40.7937 24.4907H12.2417V26.0769H40.7937V24.4907Z" fill="#5A5A5A"/>
<path d="M24.6641 7.25378H25.5669L25.1155 6.05762L24.6641 7.25378Z" fill="#CD3A62"/>
<path d="M22.8399 7.03934H22.1138V7.73922H22.8399C23.0768 7.73922 23.2199 7.60748 23.2199 7.38928C23.2199 7.20117 23.088 7.03934 22.8399 7.03934ZM23.171 6.32841C23.171 6.14414 23.0429 6.00488 22.821 6.00488H22.1138V6.65194H22.821C23.0429 6.65194 23.171 6.52033 23.171 6.32841Z" fill="#CD3A62"/>
<path d="M26.5141 1L12.229 9.58981H40.7961L26.5141 1ZM22.9409 8.1265H21.6731V5.61733H22.907C23.3699 5.61733 23.6219 5.90325 23.6219 6.25672C23.6219 6.56904 23.4186 6.7834 23.1856 6.83238C23.4564 6.87368 23.6709 7.14086 23.6709 7.44551C23.6709 7.83675 23.4148 8.1265 22.9409 8.1265ZM25.8747 8.1265L25.6903 7.64114H24.5393L24.3548 8.1265H23.8544L24.8402 5.61733H25.3893L26.3751 8.1265H25.8747ZM28.82 8.1265H28.3948L27.0856 6.33195V8.1265H26.6454V5.61733H27.0969L28.3798 7.35523V5.61733H28.82V8.1265ZM30.0158 7.06563L29.7939 7.32514V8.1265H29.3537V5.61733H29.7939V6.80981L30.7759 5.61733H31.3212L30.3017 6.79845L31.4002 8.1265H30.855L30.0158 7.06563Z" fill="#CD3A62"/>
<path d="M18.777 23.4336V13.4752H19.6443V12.3301H14.3569V13.4752H15.2213V23.4336H18.777Z" fill="#5A5A5A"/>
<path d="M31.4669 23.4336V13.4752H32.3338V12.3301H27.0464V13.4752H27.9102V23.4336H31.4669Z" fill="#5A5A5A"/>
<path d="M37.9007 23.4336V13.4752H38.6786V12.3301H33.9199V13.4752H34.6978V23.4336H37.9007Z" fill="#5A5A5A"/>
<path d="M25.1222 23.4336V13.4752H25.9891V12.3301H20.7017V13.4752H21.5655V23.4336H25.1222Z" fill="#5A5A5A"/>
<path d="M39.7577 10.1941H13.3115V11.6927H39.7577V10.1941Z" fill="#5A5A5A"/>
</svg>
