<svg width="30" height="30" viewBox="0 0 30 30" fill="none" xmlns="http://www.w3.org/2000/svg">
<circle cx="15" cy="15" r="14.5" fill="white" stroke="#CFCFCF"/>
<path d="M13.4319 11.5192C13.5179 11.433 13.5662 11.3163 13.5662 11.1947C13.5662 11.073 13.5179 10.9562 13.4319 10.8701L11.7042 9.13523C11.6312 9.06142 11.5351 9.01472 11.4319 9.00292C11.3287 8.9912 11.2246 9.01497 11.1367 9.07046C10.7868 9.28956 10.4507 9.52999 10.1302 9.79028L12.6365 12.3015L13.4319 11.5192Z" fill="#0A0A0A"/>
<path d="M20.9271 18.8608C20.9824 18.7733 21.0061 18.6697 20.9946 18.567C20.983 18.4644 20.9368 18.3686 20.8635 18.2956L19.1299 16.5584C19.044 16.4719 18.9272 16.4232 18.8053 16.4232C18.6835 16.4232 18.5666 16.4719 18.4808 16.5584L17.6961 17.3539L20.2037 19.8614H20.2037C20.4656 19.5434 20.7073 19.2092 20.9272 18.8608L20.9271 18.8608Z" fill="#0A0A0A"/>
<path d="M17.2474 17.7987C16.4328 17.8839 14.9139 17.4004 13.7561 16.239C12.5983 15.0776 12.1136 13.5611 12.1964 12.7477C12.2251 12.7153 12.26 12.6769 12.3007 12.6348L9.77647 10.1106C9.38657 10.4861 9.06863 10.9061 9.02301 11.3104C8.5731 15.176 14.8239 21.4269 18.6896 20.9769C19.0903 20.9302 19.5102 20.617 19.8894 20.2247L17.3602 17.6944C17.317 17.7368 17.2794 17.7716 17.2475 17.7988L17.2474 17.7987Z" fill="#0A0A0A"/>
</svg>
