<svg width="54" height="30" viewBox="0 0 54 30" fill="none" xmlns="http://www.w3.org/2000/svg">
<rect opacity="0.3" width="54" height="30" fill="white"/>
<path d="M33.6672 19.3569C34.4066 18.6178 35.4093 18.2021 36.4549 18.2021C37.237 18.2025 38.0012 18.4356 38.6504 18.8715C37.5581 19.6027 36.9018 20.83 36.9006 22.1446C36.9009 23.4583 37.5559 24.6857 38.6471 25.4175C37.9988 25.8527 37.2357 26.0857 36.4549 26.0869C35.4093 26.0869 34.4067 25.6716 33.6672 24.9321C32.928 24.193 32.5127 23.1903 32.5127 22.1447C32.5127 21.0991 32.928 20.0964 33.6672 19.3569Z" fill="#CD3A62"/>
<path d="M38.5693 19.3569C39.3087 18.6178 40.3114 18.2021 41.357 18.2021C42.4026 18.2021 43.4052 18.6178 44.1444 19.3569C44.8839 20.0964 45.2992 21.0991 45.2992 22.1447C45.2992 23.1903 44.8839 24.1929 44.1444 24.9321C43.4053 25.6716 42.4026 26.0869 41.357 26.0869C40.3114 26.0869 39.3087 25.6716 38.5693 24.9321C37.8301 24.193 37.4148 23.1903 37.4148 22.1447C37.4148 21.0991 37.8301 20.0964 38.5693 19.3569Z" fill="#CD3A62"/>
<path d="M8.9458 24.4613C8.9458 24.2572 9.16587 24.0938 9.4395 24.0938H20.6569C20.9308 24.0938 21.1515 24.2572 21.1515 24.4613V25.4641C21.1515 25.6682 20.9305 25.8326 20.6569 25.8326H9.4395C9.16587 25.8326 8.9458 25.6682 8.9458 25.4641V24.4613Z" fill="#CD3A62"/>
<path d="M9 21.4228C9 21.188 9.12621 21 9.28314 21H15.7163C15.8734 21 16 21.188 16 21.4228V22.5761C16 22.8109 15.8733 23 15.7163 23H9.28314C9.12621 23 9 22.811 9 22.5761V21.4228Z" fill="#CD3A62"/>
<path fill-rule="evenodd" clip-rule="evenodd" d="M7.66686 2C6.7088 2 6 2.85423 6 3.79787V26.7145C6 27.6584 6.70887 28.5124 7.66686 28.5124H47.129C48.0871 28.5124 48.7959 27.6581 48.7959 26.7145V3.79787C48.7959 2.85392 48.087 2 47.129 2H7.66686ZM7.66686 3.31645H47.129C47.2882 3.31645 47.4795 3.47928 47.4795 3.79821V5.7788H7.31682V3.79821C7.31682 3.47928 7.50769 3.31645 7.66686 3.31645ZM7.3164 11.7169H47.4791V26.715C47.4791 27.0339 47.2878 27.1967 47.1286 27.1967H7.66643C7.50728 27.1967 7.31597 27.0339 7.31597 26.715L7.3164 11.7169Z" fill="#5A5A5A"/>
</svg>
