<svg width="54" height="30" viewBox="0 0 54 30" fill="none" xmlns="http://www.w3.org/2000/svg">
<rect opacity="0.3" width="54" height="30" fill="white"/>
<path fill-rule="evenodd" clip-rule="evenodd" d="M41.2037 11.3886C39.957 11.1671 38.8558 10.5923 37.9001 9.66445C37.0415 8.80588 36.5014 7.8081 36.2797 6.67244H17.1641C16.9142 7.80818 16.3603 8.80588 15.502 9.66445C14.5457 10.5923 13.445 11.1671 12.1983 11.3886V18.9725C13.4586 19.1664 14.5599 19.7418 15.502 20.6969C16.0835 21.265 16.5197 21.8955 16.8105 22.5877C16.9629 22.948 17.0876 23.3219 17.1844 23.7098H36.2377C36.4734 22.574 37.0273 21.5696 37.8998 20.6968C38.8418 19.7411 39.943 19.166 41.2034 18.9724L41.2037 11.3886ZM26.7008 7.44085C28.8342 7.44085 30.6561 8.1893 32.1654 9.68471C33.6893 11.2222 34.4511 13.0579 34.4511 15.1908C34.4511 17.3242 33.6966 19.1458 32.1863 20.6554L32.1654 20.6763C30.6561 22.1862 28.8342 22.9413 26.7008 22.9413C24.5676 22.9413 22.7322 22.1792 21.1947 20.6557C19.6987 19.1454 18.9512 17.3242 18.9512 15.191C18.9512 13.0579 19.699 11.2224 21.1947 9.68495C22.7322 8.18925 24.5676 7.44085 26.7008 7.44085ZM31.6669 10.2045C30.3091 8.8467 28.6539 8.16815 26.7008 8.16815C24.7618 8.16815 23.0995 8.84731 21.7142 10.2045V10.2253C20.3564 11.5967 19.6784 13.2518 19.6784 15.1914C19.6784 17.1306 20.3564 18.7858 21.7142 20.1571C23.0858 21.5285 24.7483 22.2141 26.7008 22.2141C28.6403 22.2141 30.2954 21.5285 31.6669 20.1571C33.0383 18.7857 33.7238 17.1306 33.7238 15.1911C33.7238 13.2518 33.038 11.5897 31.6669 10.2045ZM42.7414 24.8944H10.6604V5.48788H42.7414V24.8944Z" fill="#5A5A5A"/>
<path d="M45.733 8.47959L44.1538 8.16799V15.8142L45.733 8.47959Z" fill="#CD3A62"/>
<path d="M41.0378 29.5074L41.661 26.5985H27.3244L41.0378 29.5074Z" fill="#CD3A62"/>
<path d="M12.3637 1L11.7405 3.9506H26.2641L12.3637 1Z" fill="#CD3A62"/>
<path d="M8 21.8613L9.57949 22.1932V14.5267L8 21.8613Z" fill="#CD3A62"/>
<path d="M29.7414 12.5616L29.3906 13.7992H22.8216L23.1724 12.5616H29.7414ZM26.5446 20.3582L22.9569 16.0039L22.9469 15.0268H24.7257C25.17 15.0268 25.5458 14.9583 25.8531 14.8214C26.1604 14.6844 26.3942 14.4857 26.5546 14.2251C26.7149 13.9612 26.7951 13.6405 26.7951 13.2631C26.7951 12.7019 26.6281 12.2559 26.294 11.9252C25.96 11.5945 25.4372 11.4292 24.7257 11.4292H22.8216L23.1874 10.0963H24.7257C25.5541 10.0963 26.2372 10.2283 26.7751 10.4922C27.3129 10.7561 27.7137 11.1218 27.9776 11.5895C28.2415 12.0572 28.3735 12.5967 28.3735 13.208C28.3735 13.7524 28.2649 14.2452 28.0478 14.6861C27.8306 15.127 27.4849 15.4861 27.0106 15.7634C26.5362 16.0406 25.9132 16.2027 25.1416 16.2494L25.0965 16.2594L28.3735 20.273V20.3582H26.5446ZM29.7464 10.0963L29.3906 11.344L24.1395 11.3139L24.4952 10.0963H29.7464Z" fill="#CD3A62"/>
</svg>
