<?xml version="1.0" encoding="utf-8"?>
<!-- Generator: Adobe Illustrator 24.0.2, SVG Export Plug-In . SVG Version: 6.00 Build 0)  -->
<svg version="1.1" id="Layer_1" xmlns="http://www.w3.org/2000/svg" xmlns:xlink="http://www.w3.org/1999/xlink" x="0px" y="0px"
	 viewBox="0 0 32 32" style="enable-background:new 0 0 32 32;" xml:space="preserve">
<style type="text/css">
	.st0{fill:#0A0A0A;}
</style>
<g id="a-z_brand">
	<g>
		<path class="st0" d="M4,13.5H1.8L5.9,1.9h2.6l4.1,11.6h-2.3l-1-2.9H5L4,13.5z M5.6,9h3.2L7.2,4.3H7.1L5.6,9z"/>
	</g>
	<g>
		<path class="st0" d="M21.4,29.7v-1.3l6-8.6h-6V18H30v1.3l-6,8.6h6v1.8H21.4z"/>
	</g>
	<g>
		<path class="st0" d="M18.8,13.2l6.4-10.6l-0.9-0.5L18,12.6C18.3,12.7,18.6,12.9,18.8,13.2z"/>
		<path class="st0" d="M13.9,19.4l-6.1,10l0.9,0.5l6.2-10.1C14.5,19.7,14.1,19.6,13.9,19.4z"/>
	</g>
	<circle class="st0" cx="16" cy="16" r="2"/>
</g>
</svg>
