<?xml version="1.0" encoding="utf-8"?>
<!-- Generator: Adobe Illustrator 24.0.2, SVG Export Plug-In . SVG Version: 6.00 Build 0)  -->
<svg version="1.1" id="Layer_3" xmlns="http://www.w3.org/2000/svg" xmlns:xlink="http://www.w3.org/1999/xlink" x="0px" y="0px"
	 viewBox="0 0 32 32" style="enable-background:new 0 0 32 32;" xml:space="preserve">
<style type="text/css">
	.st0{fill:#0A0A0A;}
</style>
<path class="st0" d="M16.4,1.9C8.8,1.9,2.5,8.2,2.5,15.8s6.2,13.9,13.9,13.9s13.9-6.2,13.9-13.9S24.1,1.9,16.4,1.9L16.4,1.9z
	 M16.4,28C9.7,28,4.2,22.5,4.2,15.8c0-6.7,5.5-12.2,12.2-12.2s12.2,5.5,12.2,12.2S23.1,28,16.4,28z M20.8,10.2l-4.4,4.4L12,10.2
	l-1.2,1.2l4.4,4.4l-4.4,4.4l1.2,1.2l4.4-4.4l4.4,4.4l1.2-1.2l-4.4-4.4l4.4-4.4L20.8,10.2z"/>
</svg>
