<?xml version="1.0" encoding="utf-8"?>
<!-- Generator: Adobe Illustrator 24.0.2, SVG Export Plug-In . SVG Version: 6.00 Build 0)  -->
<svg version="1.1" id="Layer_3" xmlns="http://www.w3.org/2000/svg" xmlns:xlink="http://www.w3.org/1999/xlink" x="0px" y="0px"
	 viewBox="0 0 32 32" style="enable-background:new 0 0 32 32;" xml:space="preserve">
<style type="text/css">
	.st0{fill:#0A0A0A;}
</style>
<g>
	<path class="st0" d="M2.9,11.7c0,0.2-0.2,0.4-0.4,0.4S2,12,2,11.7c0-0.2,0.2-0.4,0.4-0.4S2.9,11.5,2.9,11.7"/>
	<path class="st0" d="M23.1,11.8c0.2,0,0.3-0.1,0.4-0.2c0.1-0.1,0.1-0.3,0-0.4l-1.9-3.3c-0.1-0.1-0.2-0.2-0.4-0.2h-1.6
		c-0.2,0-0.4,0.2-0.4,0.4v3.3c0,0.1,0,0.2,0.1,0.3c0.1,0.1,0.2,0.1,0.3,0.1H23.1z M20.1,8.6H21l1.4,2.4h-2.3V8.6z"/>
	<path class="st0" d="M10.3,14.4c0,0.2-0.2,0.4-0.4,0.4c-0.2,0-0.4-0.2-0.4-0.4c0-0.2,0.2-0.4,0.4-0.4C10.1,14,10.3,14.2,10.3,14.4"
		/>
	<path class="st0" d="M26.8,11.6l-2.9-5.3c-0.4-0.6-1-1-1.7-1h-4.4c-0.3,0-0.7,0.1-0.9,0.4c-0.2,0.2-0.4,0.6-0.4,0.9v4.6H16h-0.3h-7
		H8.2h-4c-0.2,0-0.4,0.2-0.4,0.4c0,0.2,0.2,0.4,0.4,0.4h12.6c0.4,0,0.7-0.3,0.7-0.7V6.6c0-0.2,0.2-0.4,0.4-0.4h4.4
		c0.4,0,0.7,0.2,0.9,0.5l2.9,5.3v0c0.2,0.4,0.3,0.9,0.4,1.4V14H11.6c-0.2,0-0.4,0.2-0.4,0.4c0,0.2,0.2,0.4,0.4,0.4h14.8v2.4
		c0,0.1,0,0.2-0.1,0.3c-0.1,0.1-0.2,0.1-0.3,0.1l0,0h-2.1c-0.2-0.7-0.6-1.3-1.3-1.6c-0.7-0.3-1.4-0.3-2.1,0
		c-0.7,0.3-1.1,0.9-1.3,1.6h-7.6c-0.2,0-0.4,0.2-0.4,0.4c0,0.2,0.2,0.4,0.4,0.4h7.5c0.1,0.8,0.6,1.4,1.3,1.8c0.7,0.4,1.5,0.4,2.2,0
		c0.7-0.4,1.2-1,1.3-1.8H26c0.3,0,0.7-0.1,0.9-0.4c0.2-0.2,0.4-0.6,0.4-0.9v-3.8C27.3,12.8,27.1,12.2,26.8,11.6z M22.6,19.3
		c-0.3,0.3-0.7,0.4-1.1,0.4c-0.4,0-0.8-0.2-1.1-0.4C20.1,19,20,18.7,20,18.3c0-0.4,0.2-0.8,0.4-1.1c0.3-0.3,0.7-0.4,1.1-0.4
		c0.4,0,0.8,0.2,1.1,0.4c0.3,0.3,0.4,0.7,0.4,1.1C23,18.7,22.9,19,22.6,19.3z"/>
	<path class="st0" d="M21.9,18.3c0,0.2-0.2,0.4-0.4,0.4s-0.4-0.2-0.4-0.4c0-0.2,0.2-0.4,0.4-0.4S21.9,18,21.9,18.3"/>
	<path class="st0" d="M6.8,27.2c1.3,0,2.5-0.5,3.4-1.4c0.9-0.9,1.4-2.1,1.4-3.4s-0.5-2.5-1.4-3.4c-0.9-0.9-2.1-1.4-3.4-1.4
		S4.3,18.1,3.4,19C2.5,19.9,2,21.1,2,22.4s0.5,2.5,1.4,3.4C4.3,26.7,5.5,27.2,6.8,27.2z M6.8,18.5c1,0,2,0.4,2.8,1.1
		c0.7,0.7,1.1,1.7,1.1,2.8c0,1-0.4,2-1.1,2.8c-0.7,0.7-1.7,1.1-2.8,1.1s-2-0.4-2.8-1.1c-0.7-0.7-1.1-1.7-1.1-2.8c0-1,0.4-2,1.1-2.8
		C4.7,18.9,5.7,18.5,6.8,18.5z"/>
	<path class="st0" d="M4.2,6.8h6l-0.1,0h0C9.9,7,9.8,7.3,9.9,7.5c0.1,0.2,0.4,0.3,0.6,0.2l1.7-0.9c0.1-0.1,0.2-0.2,0.2-0.4
		c0-0.2-0.1-0.3-0.2-0.4l-1.7-0.9C10.3,5,10,5.1,9.9,5.3c-0.1,0.2,0,0.5,0.2,0.6l0.1,0h-6C4,6,3.8,6.2,3.8,6.4
		C3.8,6.6,4,6.8,4.2,6.8L4.2,6.8z"/>
	<path class="st0" d="M29.5,16.4h-0.9c-0.2,0-0.4,0.2-0.4,0.4s0.2,0.4,0.4,0.4H29v5.9H14.4l0.1-0.1c0.1-0.1,0.2-0.1,0.2-0.3
		c0-0.1,0-0.2,0-0.3c-0.1-0.1-0.2-0.2-0.3-0.2c-0.1,0-0.2,0-0.3,0l-1.6,0.9c-0.1,0.1-0.2,0.2-0.2,0.4s0.1,0.3,0.2,0.4l1.6,0.9
		c0.1,0.1,0.2,0.1,0.3,0c0.1,0,0.2-0.1,0.3-0.2c0.1-0.1,0.1-0.2,0-0.3c0-0.1-0.1-0.2-0.2-0.3L14.4,24h15.1c0.1,0,0.2,0,0.3-0.1
		c0.1-0.1,0.1-0.2,0.1-0.3v-6.8c0-0.1,0-0.2-0.1-0.3C29.7,16.4,29.6,16.4,29.5,16.4L29.5,16.4z"/>
	<g>
		<path class="st0" d="M7.4,25.8l-2.6-2.4v-0.8h1.2c0.5,0,1-0.4,1-1s-0.4-1-1-1h-1v-0.9h1c1,0,1.9,0.8,1.9,1.9c0,1-0.7,1.8-1.7,1.9
			L8,25.1L7.4,25.8z"/>
		<rect x="4.9" y="19.6" class="st0" width="3.9" height="0.7"/>
		<rect x="4.9" y="20.9" class="st0" width="3.9" height="0.7"/>
	</g>
</g>
</svg>
