<?xml version="1.0" encoding="utf-8"?>
<!-- Generator: Adobe Illustrator 24.0.2, SVG Export Plug-In . SVG Version: 6.00 Build 0)  -->
<svg version="1.1" id="Layer_3" xmlns="http://www.w3.org/2000/svg" xmlns:xlink="http://www.w3.org/1999/xlink" x="0px" y="0px"
	 viewBox="0 0 32 32" style="enable-background:new 0 0 32 32;" xml:space="preserve">
<style type="text/css">
	.st0{fill:#0A0A0A;}
	.st1{fill-rule:evenodd;clip-rule:evenodd;fill:#0A0A0A;}
</style>
<g>
	<path class="st0" d="M29.8,22.5C29.8,22.5,29.8,22.5,29.8,22.5l-6.2-4.9c-0.2-0.2-0.6-0.2-0.8-0.1c-0.3,0.1-0.5,0.5-0.5,0.9v1.3
		h-4.5c-0.3,0-0.6,0.3-0.6,0.6s0.3,0.6,0.6,0.6h5.1c0.3,0,0.6-0.3,0.6-0.6l0-1.4l5.6,4.5c0,0,0,0,0,0l-5.6,4.5v-1.4
		c0-0.3-0.3-0.6-0.6-0.6H14c0,0,0,0,0,0h-0.1c-0.9,0-1.8-0.1-2.7-0.4C6.4,24.2,3,19.8,3,14.8c0-6,4.9-11,11-11c6,0,11,4.9,11,11
		c0,0.7-0.1,1.3-0.2,2c-0.1,0.3,0.1,0.6,0.5,0.7c0.3,0.1,0.6-0.1,0.7-0.5c0.1-0.7,0.2-1.5,0.2-2.2c0-6.7-5.4-12.1-12.1-12.1
		S1.9,8.1,1.9,14.8c0,5.5,3.7,10.3,9,11.7c1,0.3,2,0.4,3,0.4H14c0,0,0,0,0,0h8.2v1.3c0,0.4,0.2,0.8,0.5,0.9c0.1,0,0.2,0.1,0.3,0.1
		c0.2,0,0.4-0.1,0.5-0.2l6.2-4.9c0,0,0,0,0,0c0.2-0.2,0.3-0.5,0.3-0.8C30.1,23,30,22.7,29.8,22.5L29.8,22.5z"/>
	<path class="st1" d="M14.6,9.7c-3,0-5.4,2.4-5.4,5.4c0,1.9,1,3.5,2.4,4.5c0.2,0.2,0.3,0.5,0.1,0.7c-0.2,0.2-0.5,0.3-0.7,0.1
		c-1.7-1.1-2.8-3.1-2.8-5.3c0-3.5,2.9-6.4,6.4-6.4s6.4,2.9,6.4,6.4c0,2.2-1.1,4.2-2.8,5.3c-0.2,0.2-0.5,0.1-0.7-0.1
		c-0.2-0.2-0.1-0.5,0.1-0.7c1.5-1,2.4-2.6,2.4-4.5C20,12.2,17.6,9.7,14.6,9.7L14.6,9.7z M12.1,12.5c0-0.3,0.2-0.5,0.5-0.5h4.3
		c0.3,0,0.5,0.2,0.5,0.5c0,0.3-0.2,0.5-0.5,0.5h-0.9c0.2,0.3,0.3,0.7,0.4,1h0.5c0.3,0,0.5,0.2,0.5,0.5c0,0.3-0.2,0.5-0.5,0.5h-0.5
		c-0.1,0.3-0.2,0.7-0.4,1c-0.4,0.5-0.9,0.9-1.8,0.9l2,1.4c0.2,0.2,0.3,0.5,0.1,0.7c-0.2,0.2-0.5,0.3-0.7,0.1l-3.3-2.3
		c-0.2-0.1-0.3-0.3-0.2-0.6c0.1-0.2,0.3-0.3,0.5-0.3h1.3c0.7,0,1-0.3,1.2-0.5c0.1-0.1,0.2-0.3,0.2-0.5h-2.7c-0.3,0-0.5-0.2-0.5-0.5
		c0-0.3,0.2-0.5,0.5-0.5h2.7c0-0.2-0.1-0.3-0.2-0.5c-0.2-0.3-0.5-0.5-1.2-0.5h-1.3C12.3,13,12.1,12.8,12.1,12.5L12.1,12.5z"/>
</g>
</svg>
