<?xml version="1.0" encoding="utf-8"?>
<!-- Generator: Adobe Illustrator 24.0.2, SVG Export Plug-In . SVG Version: 6.00 Build 0)  -->
<svg version="1.1" id="Layer_3" xmlns="http://www.w3.org/2000/svg" xmlns:xlink="http://www.w3.org/1999/xlink" x="0px" y="0px"
	 viewBox="0 0 32 32" style="enable-background:new 0 0 32 32;" xml:space="preserve">
<style type="text/css">
	.st0{fill:#0A0A0A;}
</style>
<g>
	<path class="st0" d="M28.5,5.7h-8.4V2h-9v3.7l-8,0v1.4h2.4l1.7,22.3h16.9l1.7-22.3h2.7L28.5,5.7L28.5,5.7z M12.5,3.4h6.3v2.3h-6.3
		V3.4z M22.8,27.9H8.4L6.8,7h17.6L22.8,27.9z"/>
	<path class="st0" d="M14.9,10.6h1.4v13.9h-1.4V10.6z"/>
	<path class="st0" d="M20,24.6l-1.4-0.1l0.8-13.9l1.4,0.1L20,24.6z"/>
	<path class="st0" d="M11.2,24.6l-0.8-13.9l1.4-0.1l0.8,13.9L11.2,24.6z"/>
</g>
</svg>
