<?xml version="1.0" encoding="utf-8"?>
<!-- Generator: Adobe Illustrator 24.0.2, SVG Export Plug-In . SVG Version: 6.00 Build 0)  -->
<svg version="1.1" id="Layer_3" xmlns="http://www.w3.org/2000/svg" xmlns:xlink="http://www.w3.org/1999/xlink" x="0px" y="0px"
	 viewBox="0 0 32 32" style="enable-background:new 0 0 32 32;" xml:space="preserve">
<style type="text/css">
	.st0{fill:#0A0A0A;}
</style>
<path class="st0" d="M13.7,8.3h-2.8c-0.3,0-0.5,0.2-0.5,0.5c0,0.3,0.2,0.5,0.5,0.5h2.8c0.3,0,0.5-0.2,0.5-0.5
	C14.2,8.5,14,8.3,13.7,8.3z M6.7,11.1H3.4c-0.3,0-0.5,0.2-0.5,0.5s0.2,0.5,0.5,0.5h3.3c0.3,0,0.5-0.2,0.5-0.5S7,11.1,6.7,11.1z
	 M12.8,11.1H8.6c-0.3,0-0.5,0.2-0.5,0.5s0.2,0.5,0.5,0.5h4.2c0.3,0,0.5-0.2,0.5-0.5S13.1,11.1,12.8,11.1z M9.1,13.9H3
	c-0.3,0-0.5,0.2-0.5,0.5c0,0.3,0.2,0.5,0.5,0.5h6.1c0.3,0,0.5-0.2,0.5-0.5C9.5,14.1,9.3,13.9,9.1,13.9z M12.3,13.9h-1.4
	c-0.3,0-0.5,0.2-0.5,0.5c0,0.3,0.2,0.5,0.5,0.5h1.4c0.3,0,0.5-0.2,0.5-0.5C12.8,14.1,12.6,13.9,12.3,13.9z M11.4,16.7H9.5
	c-0.3,0-0.5,0.2-0.5,0.5s0.2,0.5,0.5,0.5h1.9c0.3,0,0.5-0.2,0.5-0.5S11.7,16.7,11.4,16.7z M29.9,16.7l-2.4-3.9
	c-0.3-0.4-0.7-0.7-1.2-0.7h-5L22,6.6h0c0.1-0.4-0.1-0.8-0.3-1.1C21.4,5.2,21.1,5,20.6,5H7C6.7,5,6.4,5.2,6.1,5.4
	C5.9,5.6,5.7,5.9,5.7,6.2L5.3,8.3H3.9c-0.3,0-0.5,0.2-0.5,0.5s0.2,0.5,0.5,0.5h5.2c0.3,0,0.5-0.2,0.5-0.5S9.3,8.3,9.1,8.3H6.3
	l0.3-1.9C6.6,6.1,6.8,6,7,6h13.6C20.8,6,20.9,6,21,6.1c0.1,0.1,0.1,0.2,0.1,0.4L19,23.3h-6.2c-0.1-0.9-0.7-1.6-1.5-2
	c-0.8-0.4-1.7-0.4-2.5,0c-0.8,0.4-1.4,1.2-1.5,2H4.5c-0.1,0-0.3-0.1-0.4-0.2C4.1,23,4,22.9,4.1,22.8l0.8-5.1h2.8
	c0.3,0,0.5-0.2,0.5-0.5c0-0.3-0.2-0.5-0.5-0.5H2.5C2.2,16.7,2,17,2,17.2c0,0.3,0.2,0.5,0.5,0.5h1.4l-0.8,4.9
	c-0.1,0.4,0.1,0.8,0.3,1.1c0.3,0.3,0.7,0.5,1.1,0.5h2.7h0c0.1,0.9,0.7,1.6,1.5,2c0.8,0.4,1.7,0.4,2.5,0c0.8-0.4,1.4-1.2,1.5-2h8.1
	c0.1,0.9,0.7,1.6,1.5,2c0.8,0.4,1.7,0.4,2.5,0c0.8-0.4,1.4-1.2,1.5-2h1.6c0.3,0,0.7-0.1,0.9-0.3c0.3-0.2,0.4-0.5,0.5-0.9l0.8-5.4h0
	C30.2,17.3,30.1,17,29.9,16.7L29.9,16.7z M23.6,25.6c-0.5,0-1-0.2-1.3-0.6c-0.4-0.4-0.5-0.8-0.5-1.3c0-0.5,0.2-1,0.6-1.3
	c0.4-0.4,0.8-0.5,1.3-0.5c0.5,0,1,0.2,1.3,0.5c0.4,0.4,0.5,0.8,0.5,1.3c0,0.5-0.2,1-0.6,1.3C24.6,25.4,24.1,25.6,23.6,25.6
	L23.6,25.6z M27.7,17.4c-0.1,0.1-0.2,0.2-0.4,0.2h-4.7c-0.1,0-0.3-0.1-0.4-0.2c-0.1-0.1-0.1-0.2-0.1-0.4l0.5-3.3
	c0-0.2,0.2-0.4,0.5-0.4h2.3c0.2,0,0.3,0.1,0.4,0.2l1.9,3.3C27.8,17.1,27.8,17.3,27.7,17.4L27.7,17.4z"/>
</svg>
