<?xml version="1.0" encoding="utf-8"?>
<!-- Generator: Adobe Illustrator 24.0.2, SVG Export Plug-In . SVG Version: 6.00 Build 0)  -->
<svg version="1.1" id="Layer_3" xmlns="http://www.w3.org/2000/svg" xmlns:xlink="http://www.w3.org/1999/xlink" x="0px" y="0px"
	 viewBox="0 0 32 32" style="enable-background:new 0 0 32 32;" xml:space="preserve">
<style type="text/css">
	.st0{fill:#0A0A0A;}
</style>
<g>
	<path class="st0" d="M3.3,29.6h23.3c0.2,0,0.4-0.1,0.5-0.2c0.1-0.1,0.2-0.3,0.2-0.5v-11c0-0.4-0.3-0.7-0.7-0.7
		c-0.4,0-0.7,0.3-0.7,0.7v10.2H4.1V6.3h8.9c0.4,0,0.7-0.3,0.7-0.7c0-0.4-0.3-0.7-0.7-0.7H3.3c-0.4,0-0.7,0.3-0.7,0.7v23.3
		c0,0.2,0.1,0.4,0.2,0.5C3,29.5,3.1,29.6,3.3,29.6L3.3,29.6z"/>
	<path class="st0" d="M29.3,2.9c-0.8-0.8-1.8-1.2-2.9-1.2c-1.1,0-2.1,0.4-2.9,1.2L12.7,13.7c-0.1,0.1-0.2,0.2-0.2,0.3l-1.6,6.4
		c-0.1,0.2,0,0.5,0.2,0.7c0.1,0.1,0.3,0.2,0.5,0.2h0.1l6.4-1.6h0c0.1,0,0.2-0.1,0.3-0.2L29.3,8.7c0.8-0.8,1.2-1.8,1.2-2.9
		C30.5,4.7,30,3.6,29.3,2.9L29.3,2.9z M17.6,18.3l-5,1.3l1.2-5l9-9.1l3.8,3.7L17.6,18.3z M28.3,7.7l-0.6,0.6L24,4.5l0.6-0.6
		c0.7-0.7,1.6-0.9,2.5-0.7c0.9,0.2,1.6,1,1.9,1.9C29.2,6,28.9,7,28.3,7.7L28.3,7.7z"/>
</g>
</svg>
