<svg width="30" height="30" viewBox="0 0 30 30" fill="none" xmlns="http://www.w3.org/2000/svg">
<circle cx="15" cy="15" r="14.5" fill="white" stroke="#CFCFCF"/>
<path d="M13.1674 21.5456V21.7878C13.1608 21.9543 13.1974 22.1087 13.2806 22.254C13.3338 22.4053 13.427 22.5355 13.5567 22.6445C13.6765 22.7625 13.8196 22.8473 13.9859 22.8957C14.1457 22.9714 14.3153 23.0078 14.4983 22.9987C14.6148 22.9835 14.7346 22.9684 14.851 22.9563C15.0773 22.8988 15.2736 22.7959 15.44 22.6445C15.5098 22.5628 15.5797 22.481 15.6496 22.3993C15.7694 22.2116 15.8292 22.0058 15.8326 21.7878V21.5456C15.8392 21.3791 15.8026 21.2247 15.7194 21.0794C15.6662 20.9281 15.573 20.7979 15.4433 20.6889C15.3235 20.5709 15.1804 20.4861 15.0141 20.4377C14.8544 20.362 14.6847 20.3257 14.5017 20.3347C14.3852 20.3499 14.2654 20.365 14.149 20.3771C13.9227 20.4346 13.7264 20.5376 13.5601 20.6889C13.4902 20.7707 13.4203 20.8524 13.3504 20.9341C13.2273 21.1248 13.1674 21.3277 13.1674 21.5456Z" fill="#0A0A0A"/>
<path d="M11.7007 11.9176C11.7007 11.7465 11.7112 11.578 11.7347 11.4069C11.7216 11.4991 11.7085 11.5938 11.6981 11.686C11.7452 11.3464 11.8341 11.0147 11.9648 10.6988C11.9308 10.783 11.8942 10.8673 11.8602 10.9515C11.991 10.6435 12.1584 10.354 12.3597 10.0881C12.3048 10.1591 12.2499 10.2302 12.195 10.3013C12.3989 10.0381 12.6317 9.80377 12.8932 9.59843C12.8226 9.65371 12.752 9.70899 12.6814 9.76427C12.9455 9.56158 13.2332 9.39311 13.5392 9.2615C13.4555 9.29572 13.3718 9.33258 13.2882 9.3668C13.602 9.23518 13.9315 9.14567 14.2689 9.09829C14.1773 9.11146 14.0832 9.12462 13.9917 9.13515C14.329 9.09303 14.669 9.09303 15.0064 9.13515C14.9148 9.12199 14.8207 9.10882 14.7292 9.09829C15.0665 9.14568 15.396 9.23255 15.7125 9.36416C15.6288 9.32994 15.5451 9.29309 15.4614 9.25887C15.7674 9.39049 16.055 9.55896 16.3192 9.76164C16.2486 9.70636 16.178 9.65108 16.1074 9.5958C16.3689 9.80112 16.6016 10.0354 16.8057 10.2987C16.7507 10.2276 16.6958 10.1565 16.6409 10.0854C16.8423 10.3513 17.0096 10.6409 17.1404 10.9489C17.1064 10.8646 17.0698 10.7804 17.0358 10.6962C17.1665 11.0147 17.2555 11.3437 17.2999 11.6859C17.2868 11.5938 17.2738 11.499 17.2633 11.4069C17.3051 11.7465 17.3051 12.0887 17.2633 12.4256C17.2764 12.3335 17.2895 12.2387 17.2999 12.1466C17.2528 12.4862 17.1639 12.8178 17.0332 13.1363C17.0672 13.0521 17.1038 12.9679 17.1378 12.8836C17.007 13.1916 16.8396 13.4812 16.6356 13.7497C16.6906 13.6786 16.7455 13.6075 16.8004 13.5364C16.5964 13.7997 16.3637 14.034 16.1021 14.2393C16.1727 14.184 16.2433 14.1288 16.314 14.0735C16.0341 14.2867 15.736 14.4446 15.4196 14.5947C15.0404 14.7737 14.6821 15.0474 14.3996 15.3581C13.7955 16.0293 13.4529 16.8848 13.4503 17.793V18.3905C13.4503 18.9407 13.9315 19.4698 14.4964 19.4435C15.0639 19.4172 15.5425 18.9802 15.5425 18.3905C15.5425 18.072 15.5242 17.7456 15.566 17.4297C15.5529 17.5219 15.5398 17.6166 15.5294 17.7088C15.5608 17.4982 15.6157 17.2955 15.6968 17.098C15.6628 17.1823 15.6261 17.2665 15.5922 17.3507C15.6785 17.1454 15.7909 16.9559 15.9269 16.7769C15.872 16.8479 15.8171 16.919 15.7621 16.9901C15.8929 16.8243 16.042 16.6768 16.2067 16.5452C16.1361 16.6005 16.0655 16.6558 15.9949 16.7111C16.2486 16.5163 16.5336 16.4031 16.8134 16.2557C17.143 16.0819 17.4437 15.8555 17.7262 15.6133C18.2361 15.1764 18.665 14.5999 18.9318 13.9839C19.2404 13.2731 19.4208 12.5176 19.3842 11.7358C19.3502 10.9856 19.1593 10.2723 18.8167 9.60626C18.1995 8.40852 17.0331 7.49246 15.7386 7.15552C14.3944 6.80804 12.8723 7.04232 11.7347 7.86363C11.1071 8.3164 10.5631 8.885 10.1996 9.57733C9.81774 10.3012 9.61376 11.1015 9.61112 11.9202C9.60851 12.4703 10.0949 12.9994 10.6572 12.9731C11.2247 12.9468 11.6981 12.5098 11.7007 11.9175L11.7007 11.9176Z" fill="#0A0A0A"/>
</svg>
