<?xml version="1.0" encoding="utf-8"?>
<!-- Generator: Adobe Illustrator 24.0.2, SVG Export Plug-In . SVG Version: 6.00 Build 0)  -->
<svg version="1.1" id="Layer_1" xmlns="http://www.w3.org/2000/svg" xmlns:xlink="http://www.w3.org/1999/xlink" x="0px" y="0px"
	 viewBox="0 0 32 32" style="enable-background:new 0 0 32 32;" xml:space="preserve">
<style type="text/css">
	.st0{fill:#0A0A0A;}
</style>
<g id="Layer_6">
	<path class="st0" d="M20.6,28c-0.9,0.7-2,1-3.4,1c-1.6,0-2.7-0.3-3.4-1s-1-1.7-1-3.1V11.6c0-0.1-0.1-0.2-0.3-0.2H9.4
		c0,0-0.1,0-0.1-0.1s0-0.2,0-0.3s0-0.3,0-0.4c0-0.1,0-0.2,0.1-0.2h3.2c0.2,0,0.3-0.1,0.3-0.2V6.6c0.5,0,1-0.2,1.4-0.5
		c0.5-0.3,0.9-0.6,1.2-1c0.4-0.4,0.6-0.8,0.9-1.2c0.2-0.4,0.4-0.8,0.5-1.1c0.1-0.1,0.4-0.1,0.9,0v7.4c0,0.1,0.1,0.2,0.4,0.2H22
		c0,0,0,0.1,0,0.2c0,0.1,0,0.2,0,0.4c0,0.1,0,0.2,0,0.3s0,0.1,0,0.1h-3.7c-0.3,0-0.4,0.1-0.4,0.2v14.7c0,0.4,0.1,0.7,0.4,0.9
		c0.3,0.2,0.6,0.3,1,0.3c0.6,0,1.1-0.3,1.5-0.8s0.8-1.2,1-2c0,0,0,0,0.1,0.1c0.1,0,0.1,0.1,0.2,0.1c0.1,0.1,0.2,0.1,0.2,0.1
		c0.1,0,0.1,0.1,0.1,0.1C22.1,26.4,21.5,27.3,20.6,28z"/>
</g>
</svg>
