<svg width="54" height="54" viewBox="0 0 54 54" fill="none" xmlns="http://www.w3.org/2000/svg">
<path d="M53.3543 26.6593C53.3543 12.1266 41.5321 0.304688 26.9997 0.304688C12.4672 0.304688 0.64502 12.1269 0.64502 26.6593C0.64502 33.467 3.21715 39.8771 7.89188 44.7957L7.884 44.8114L8.36617 45.2936C13.3444 50.2729 19.962 53.0147 27 53.0147C34.038 53.0147 40.6547 50.2729 45.6338 45.2936L46.116 44.8114L46.1081 44.7957C50.7828 39.8778 53.355 33.4677 53.355 26.6593H53.3543ZM26.9997 2.18716C40.4943 2.18716 51.4719 13.1654 51.4719 26.6593C51.4719 32.7738 49.2422 38.5466 45.1679 43.0517C41.5641 37.0576 34.582 33.2485 26.9993 33.2485C19.4165 33.2485 12.4343 37.0576 8.8307 43.0517C4.75635 38.5472 2.52669 32.7742 2.52669 26.6593C2.52669 13.1647 13.5049 2.18716 26.9989 2.18716H26.9997ZM25.8005 51.1019C25.6692 51.0956 25.5395 51.0825 25.4087 51.0741C25.1424 51.0573 24.8756 51.041 24.6109 51.0158C24.4564 51.0011 24.3036 50.979 24.1497 50.9612C23.9107 50.9333 23.6712 50.9081 23.4343 50.8735C23.2678 50.8493 23.1034 50.8183 22.938 50.7905C22.7158 50.7537 22.4925 50.7185 22.2719 50.6749C22.1002 50.6418 21.9305 50.6014 21.7593 50.5646C21.5471 50.5184 21.3344 50.4738 21.1238 50.4223C20.9499 50.3797 20.7782 50.3304 20.6048 50.2841C20.4005 50.229 20.1956 50.1754 19.9929 50.115C19.8196 50.0635 19.6483 50.0063 19.4766 49.9511C19.2765 49.8865 19.0769 49.823 18.8789 49.7536C18.7076 49.6932 18.538 49.6281 18.3678 49.564C18.1729 49.4905 17.9786 49.4175 17.7853 49.3392C17.6162 49.2704 17.4486 49.1969 17.2805 49.1244C17.0909 49.0419 16.9008 48.96 16.7133 48.8728C16.5463 48.7951 16.3808 48.7136 16.2148 48.6317C16.031 48.5414 15.8472 48.45 15.6649 48.3549C15.501 48.2687 15.3382 48.1789 15.1754 48.0886C14.9957 47.9893 14.8166 47.8885 14.6396 47.7845C14.4794 47.6905 14.3208 47.5933 14.1627 47.4956C13.9883 47.3874 13.8134 47.2776 13.6411 47.1647C13.4851 47.0623 13.3302 46.9577 13.1763 46.8517C13.0066 46.735 12.8375 46.6163 12.671 46.495C12.5187 46.3847 12.3674 46.2718 12.2172 46.1573C12.0539 46.0328 11.8921 45.9067 11.7319 45.7781C11.5827 45.6583 11.4346 45.537 11.288 45.4135C11.1315 45.2817 10.9766 45.1478 10.8232 45.0117C10.6777 44.8836 10.5343 44.7544 10.392 44.6225C10.3268 44.5621 10.2633 44.4996 10.1987 44.4382C13.3838 38.7624 19.8973 35.1303 26.9998 35.1303C34.1022 35.1303 40.6155 38.7624 43.8009 44.4397C43.7363 44.5006 43.6727 44.5631 43.6076 44.624C43.4658 44.7558 43.3219 44.8851 43.1764 45.0132C43.023 45.1492 42.868 45.2832 42.7115 45.415C42.565 45.5385 42.4169 45.6598 42.2677 45.7795C42.1075 45.9082 41.9457 46.0348 41.7824 46.1588C41.6321 46.2733 41.4809 46.3862 41.3286 46.4965C41.1615 46.6178 40.9924 46.7365 40.8233 46.8531C40.6694 46.9592 40.515 47.0638 40.3584 47.1662C40.1862 47.2791 40.0113 47.3889 39.8369 47.4971C39.6788 47.5948 39.5201 47.6919 39.3599 47.7859C39.1829 47.8899 39.0038 47.9903 38.8242 48.0901C38.6614 48.1799 38.4991 48.2702 38.3347 48.3564C38.1524 48.452 37.9686 48.5428 37.7847 48.6332C37.6188 48.7146 37.4533 48.7965 37.2863 48.8743C37.0988 48.9615 36.9092 49.0434 36.719 49.1259C36.5515 49.1983 36.3834 49.2719 36.2143 49.3407C36.021 49.419 35.8266 49.492 35.6318 49.5655C35.4616 49.6296 35.2919 49.6947 35.1207 49.7551C34.9232 49.8244 34.7231 49.888 34.523 49.9526C34.3512 50.0078 34.1795 50.065 34.0067 50.1165C33.8039 50.1769 33.5991 50.2305 33.3948 50.2856C33.2214 50.3318 33.0497 50.3812 32.8758 50.4238C32.6647 50.4752 32.4525 50.5199 32.2403 50.5661C32.0696 50.6029 31.8999 50.6433 31.7276 50.6764C31.507 50.7195 31.2843 50.7547 31.0616 50.792C30.8962 50.8193 30.7318 50.8503 30.5653 50.8749C30.3279 50.9096 30.0889 50.9353 29.8499 50.9627C29.696 50.9805 29.5431 51.0026 29.3887 51.0173C29.124 51.0425 28.8572 51.0588 28.5909 51.0756C28.4601 51.084 28.3303 51.0971 28.199 51.1034C27.8009 51.1213 27.4012 51.1313 26.9999 51.1313C26.5986 51.1313 26.1989 51.1213 25.8008 51.1018L25.8005 51.1019Z" fill="#0A0A0A"/>
<path d="M26.9997 27.5982C32.1897 27.5982 36.4121 23.3758 36.4121 18.1858C36.4121 12.9958 32.1897 8.77344 26.9997 8.77344C21.8097 8.77344 17.5873 12.9958 17.5873 18.1858C17.5873 23.3758 21.8097 27.5982 26.9997 27.5982ZM26.9997 10.6559C31.1518 10.6559 34.5296 14.0337 34.5296 18.1858C34.5296 22.3379 31.1518 25.7157 26.9997 25.7157C22.8476 25.7157 19.4698 22.3379 19.4698 18.1858C19.4698 14.0337 22.8476 10.6559 26.9997 10.6559Z" fill="#0A0A0A"/>
</svg>
