<svg width="43" height="33" viewBox="0 0 43 33" fill="none" xmlns="http://www.w3.org/2000/svg">
<path d="M1.74095 31.6346H1.71462C1.21809 31.6205 0.81665 31.2105 0.81665 30.7146V1.96411C0.81665 1.46082 1.23215 1.04492 1.74095 1.04492H41.102C41.6131 1.04492 42.0277 1.46115 42.0266 1.96333V1.96411V30.7154C42.0266 31.2186 41.6112 31.6346 41.102 31.6346H1.74095ZM42.4016 30.7154V1.96411L1.74095 32.0096H2.11595H41.102C41.8168 32.0096 42.4016 31.4272 42.4016 30.7154ZM3.06422 2.90642H2.68922V3.28142V29.3979V29.7729H3.06422H39.7803H40.1553V29.3979V3.28142V2.90642H39.7803H3.06422Z" fill="#4D4D4D" stroke="#FBFBFB" stroke-width="0.75"/>
<path d="M21.2978 6.22622C23.8091 6.15319 26.4947 6.65378 29.2217 7.69488L27.1613 17.4701C24.1733 16.0251 21.2486 15.3224 18.3558 15.6242C15.5434 15.9176 12.7755 17.184 10.0354 19.4747L10.5901 11.3864C13.2267 8.08836 17.0122 6.35036 21.2978 6.22594L21.2978 6.22622ZM18.8809 7.88352C18.2301 8.32254 17.8036 9.0281 17.5832 9.8188H16.464V10.454H17.4446C17.3976 10.7911 17.4034 11.0946 17.4248 11.4066H16.464V12.0417H17.5139C17.7145 12.9149 18.1859 13.6734 18.9203 14.0959C19.9149 14.6682 21.3314 14.5367 22.9815 13.3416L22.615 12.8256C21.0824 13.9357 19.9758 13.9651 19.2373 13.5402C18.7312 13.249 18.3639 12.7038 18.1775 12.0417H21.5353V11.4066H18.0585C18.0155 11.0949 18.0554 10.7463 18.0883 10.454H21.5352V9.81882H18.2467C18.4481 9.22246 18.7867 8.71354 19.2372 8.40974C19.9847 7.90541 21.0655 7.86084 22.595 8.97543L22.9714 8.4594C21.7854 7.53813 20.2071 7.01085 18.8805 7.88383L18.8809 7.88352ZM29.0933 11.3669C29.9746 11.8436 30.8483 12.3917 31.7083 13.0142L27.1915 21.9259C24.6811 19.7605 22.0516 18.3539 19.1982 17.9266C16.8952 17.5818 14.4423 17.886 11.8289 18.8594C14.0254 17.3221 16.2145 16.49 18.4256 16.2594C21.2905 15.9605 24.2112 16.6634 27.2514 18.1945C27.4228 18.2763 27.6562 18.162 27.6971 17.9763L29.0933 11.3669ZM30.5792 16.6465C31.352 17.3672 32.0994 18.165 32.8078 19.0382L26.1316 26.4611C24.2665 23.7193 22.0912 21.679 19.4457 20.527C17.2143 19.5549 14.6508 19.2333 11.7194 19.5644C14.3761 18.5242 16.8107 18.2195 19.0989 18.5621C21.9255 18.9853 24.5422 20.3937 27.0827 22.6608C27.2285 22.79 27.493 22.7371 27.5779 22.5615L30.5792 16.6465Z" fill="#4D4D4D"/>
<path d="M19.3607 7.22266L15.8661 8.6499L14.9801 10.6681V13.7689L18.4747 15.0979L23.0029 14.2119L23.9873 12.9814V10.3728L23.0029 7.51806L19.3607 7.22266Z" fill="#4D4D4D"/>
<path d="M22.941 9.50044L22.7237 10.2419H18.5816L18.7989 9.50044H22.941ZM20.9978 14.499L18.6583 11.6354L18.6455 11.0985H19.8089C20.1114 11.0985 20.3693 11.0558 20.5823 10.9706C20.7954 10.8833 20.9584 10.7533 21.0713 10.5807C21.1842 10.406 21.2407 10.1865 21.2407 9.92232C21.2407 9.5324 21.1235 9.22665 20.8891 9.00506C20.6548 8.78134 20.2947 8.66948 19.8089 8.66948H18.5816L18.7989 7.95357H19.8089C20.3288 7.95357 20.7549 8.03986 21.0873 8.21245C21.4218 8.3829 21.669 8.61728 21.8288 8.91557C21.9907 9.21174 22.0717 9.54732 22.0717 9.92232C22.0717 10.2611 21.9971 10.5732 21.8479 10.8588C21.7009 11.1421 21.4644 11.3701 21.1384 11.5427C20.8146 11.7153 20.3863 11.8016 19.8536 11.8016H19.8345L21.995 14.4479V14.499H20.9978ZM22.941 7.95357L22.7237 8.69505L19.4637 8.66948L19.681 7.95357H22.941Z" fill="white"/>
<circle cx="30.2673" cy="21.5043" r="6.00524" fill="#FBFBFB" stroke="#4D4D4D"/>
<path d="M29.2673 18.2524V22.5042H32.8523" stroke="#4D4D4D"/>
</svg>
