<svg width="43" height="32" viewBox="0 0 43 32" fill="none" xmlns="http://www.w3.org/2000/svg">
<path d="M1.74095 30.9973H1.71462C1.21809 30.9833 0.81665 30.5733 0.81665 30.0774V1.3269C0.81665 0.823617 1.23215 0.407715 1.74095 0.407715H41.102C41.6131 0.407715 42.0277 0.82394 42.0266 1.32613V1.3269V30.0782C42.0266 30.5814 41.6112 30.9973 41.102 30.9973H1.74095ZM42.4016 30.0782V1.3269L1.74095 31.3723H2.11595H41.102C41.8168 31.3723 42.4016 30.79 42.4016 30.0782ZM3.06422 2.26921H2.68922V2.64421V28.7607V29.1357H3.06422H39.7803H40.1553V28.7607V2.64421V2.26921H39.7803H3.06422Z" fill="#4D4D4D" stroke="#FBFBFB" stroke-width="0.75"/>
<path d="M21.2977 5.58901C23.809 5.51599 26.4946 6.01657 29.2216 7.05767L27.1613 16.8329C24.1733 15.3879 21.2486 14.6852 18.3558 14.987C15.5433 15.2804 12.7754 16.5467 10.0354 18.8375L10.59 10.7492C13.2267 7.45116 17.0122 5.71315 21.2977 5.58873L21.2977 5.58901ZM18.8809 7.24631C18.2301 7.68534 17.8036 8.3909 17.5832 9.18159H16.464V9.81675H17.4446C17.3976 10.1539 17.4034 10.4574 17.4248 10.7694H16.4639V11.4045H17.5139C17.7144 12.2777 18.1859 13.0362 18.9203 13.4587C19.9148 14.031 21.3314 13.8995 22.9814 12.7044L22.615 12.1884C21.0823 13.2985 19.9757 13.3279 19.2373 12.903C18.7312 12.6117 18.3639 12.0666 18.1774 11.4045H21.5352V10.7694H18.0585C18.0155 10.4577 18.0554 10.1091 18.0883 9.81676H21.5352V9.18161H18.2466C18.4481 8.58526 18.7867 8.07633 19.2372 7.77253C19.9846 7.2682 21.0655 7.22363 22.595 8.33822L22.9714 7.8222C21.7853 6.90092 20.2071 6.37364 18.8804 7.24663L18.8809 7.24631ZM29.0932 10.7297C29.9746 11.2064 30.8483 11.7545 31.7082 12.377L27.1915 21.2887C24.6811 19.1233 22.0515 17.7167 19.1981 17.2894C16.8951 16.9446 14.4423 17.2488 11.8289 18.2222C14.0254 16.6849 16.2145 15.8527 18.4255 15.6222C21.2905 15.3233 24.2112 16.0261 27.2514 17.5573C27.4228 17.6391 27.6562 17.5248 27.697 17.3391L29.0932 10.7297ZM30.5791 16.0092C31.352 16.73 32.0994 17.5278 32.8078 18.401L26.1315 25.8239C24.2664 23.0821 22.0911 21.0418 19.4456 19.8898C17.2143 18.9177 14.6507 18.5961 11.7194 18.9272C14.3761 17.887 16.8106 17.5823 19.0989 17.9249C21.9254 18.3481 24.5422 19.7565 27.0826 22.0236C27.2284 22.1528 27.493 22.0999 27.5779 21.9243L30.5791 16.0092Z" fill="#4D4D4D"/>
<path d="M19.3606 6.58545L15.8661 8.0127L14.9801 10.0309V13.1317L18.4747 14.4607L23.0029 13.5747L23.9873 12.3442V9.73559L23.0029 6.88085L19.3606 6.58545Z" fill="#4D4D4D"/>
<path d="M22.941 8.86324L22.7237 9.60471H18.5816L18.7989 8.86324H22.941ZM20.9978 13.8618L18.6583 10.9982L18.6455 10.4612H19.8089C20.1114 10.4612 20.3693 10.4186 20.5823 10.3334C20.7954 10.246 20.9584 10.1161 21.0713 9.94349C21.1842 9.76878 21.2407 9.54932 21.2407 9.28511C21.2407 8.8952 21.1235 8.58944 20.8891 8.36785C20.6548 8.14413 20.2947 8.03227 19.8089 8.03227H18.5816L18.7989 7.31636H19.8089C20.3288 7.31636 20.7549 7.40265 21.0873 7.57524C21.4218 7.74569 21.669 7.98007 21.8288 8.27836C21.9907 8.57453 22.0717 8.91011 22.0717 9.28511C22.0717 9.62389 21.9971 9.93603 21.8479 10.2215C21.7009 10.5049 21.4644 10.7329 21.1384 10.9055C20.8146 11.0781 20.3863 11.1644 19.8536 11.1644H19.8345L21.995 13.8107V13.8618H20.9978ZM22.941 7.31636L22.7237 8.05784L19.4637 8.03227L19.681 7.31636H22.941Z" fill="white"/>
<circle cx="30.2673" cy="20.8671" r="6.00524" fill="#FBFBFB" stroke="#CD3A62"/>
<path d="M29.2673 17.6152V21.8669H32.8523" stroke="#CD3A62"/>
</svg>
