<?xml version="1.0" encoding="utf-8"?>
<!-- Generator: Adobe Illustrator 24.0.2, SVG Export Plug-In . SVG Version: 6.00 Build 0)  -->
<svg version="1.1" id="Layer_2" xmlns="http://www.w3.org/2000/svg" xmlns:xlink="http://www.w3.org/1999/xlink" x="0px" y="0px"
	 viewBox="0 0 32 32" style="enable-background:new 0 0 32 32;" xml:space="preserve">
<style type="text/css">
	.st0{fill-rule:evenodd;clip-rule:evenodd;stroke:#000000;stroke-width:0.25;}
</style>
<path class="st0" d="M11.4,2C6.2,2,2,6.2,2,11.3v2.4c0,0.2,0.1,0.5,0.3,0.6c0.2,0.2,0.4,0.3,0.6,0.3h10.9c0.2,0,0.5-0.1,0.6-0.3
	c0.2-0.2,0.3-0.4,0.3-0.6V2.9c0-0.5-0.4-0.9-0.9-0.9L11.4,2z M18.2,2c-0.5,0-0.9,0.4-0.9,0.9v10.9c0,0.2,0.1,0.5,0.3,0.6
	c0.2,0.2,0.4,0.3,0.6,0.3h10.9c0.2,0,0.5-0.1,0.6-0.3c0.2-0.2,0.3-0.4,0.3-0.6v-2.4C30,6.2,25.8,2,20.6,2L18.2,2z M11.4,3.7H13v9.2
	H3.8v-1.6C3.8,7.1,7.2,3.7,11.4,3.7L11.4,3.7z M19.1,3.7h1.6c4.2,0,7.6,3.4,7.6,7.6v1.6h-9.2L19.1,3.7z M2.9,17.3
	c-0.2,0-0.5,0.1-0.6,0.3C2.1,17.7,2,18,2,18.2v2.4c0,5.2,4.2,9.3,9.4,9.3h2.4v0c0.5,0,0.9-0.4,0.9-0.9V18.2c0-0.2-0.1-0.5-0.3-0.6
	c-0.2-0.2-0.4-0.3-0.6-0.3L2.9,17.3z M23.7,17.3c-3.5,0-6.3,2.8-6.3,6.3s2.8,6.3,6.3,6.3c3.5,0,6.3-2.8,6.3-6.3S27.2,17.3,23.7,17.3
	z M3.8,19.1H13v9.2h-1.6c-4.2,0-7.6-3.4-7.6-7.6L3.8,19.1z M23.7,19.1c2.6,0,4.6,2,4.6,4.6c0,2.6-2,4.6-4.6,4.6
	c-2.6,0-4.6-2-4.6-4.6C19.1,21.1,21.1,19.1,23.7,19.1z"/>
</svg>
