<?xml version="1.0" encoding="utf-8"?>
<!-- Generator: Adobe Illustrator 24.0.2, SVG Export Plug-In . SVG Version: 6.00 Build 0)  -->
<svg version="1.1" xmlns="http://www.w3.org/2000/svg" xmlns:xlink="http://www.w3.org/1999/xlink" x="0px" y="0px"
	 viewBox="0 0 32 32" style="enable-background:new 0 0 32 32;" xml:space="preserve">
<style type="text/css">
	.st0{fill:#0A0A0A;stroke:#0A0A0A;stroke-width:0.75;}
</style>
<g id="guids">
</g>
<g id="Layer_3">
</g>
<g id="Layer_2">
	<g>
		<polygon class="st0" points="12.5,4.5 15.3,3.9 18.5,4.5 20.9,5.9 22.5,8.5 21.5,11.5 20.5,13.5 20.3,15.2 22.5,16.5 25.9,19.7 
			27.3,23.2 27.5,26.5 24.5,27.5 18.5,28.5 13.5,28.5 9.5,27.5 5.5,27.5 5.5,25.5 5.5,21.5 7.4,18.9 9.5,15.5 11.5,14.5 13.5,14.5 
			11.5,13.5 10.5,11.5 10.5,8.5 11.5,5.5 		"/>
		<path class="st0" d="M28.7,26.4c0,1-1.3,1.7-4.2,2.1c-2.7,0.4-5.5,0.6-8.2,0.5C12.6,29,4,28.7,4,26.4c0-5.6,3.1-10.3,7.8-12.1l0,0
			c-1.4-1.2-2.2-2.9-2.3-4.7c-0.1-1.8,0.6-3.6,1.9-4.9c1.3-1.3,3.1-2,5-2c1.9,0,3.7,0.7,5,2c1.3,1.3,2,3.1,1.9,4.9
			c-0.1,1.8-0.9,3.5-2.3,4.7C25.6,16,28.7,20.7,28.7,26.4L28.7,26.4z M22.2,9.3c0-1.5-0.6-2.9-1.7-3.9c-1.1-1-2.6-1.6-4.1-1.6
			c-1.5,0-3,0.6-4.1,1.6c-1.1,1-1.7,2.5-1.7,3.9c0,1.5,0.6,2.9,1.7,3.9c1.1,1,2.6,1.6,4.1,1.6c1.5,0,3-0.6,4.1-1.6
			C21.6,12.2,22.2,10.8,22.2,9.3z M19.9,15c-1.1,0.6-2.3,0.9-3.5,0.9s-2.4-0.3-3.5-0.9c-4.7,1.3-7.8,5.9-7.8,11.3
			c0.1,0.5,3.6,1.6,11.3,1.6c7.7,0,11.2-1.1,11.3-1.6C27.6,20.9,24.5,16.4,19.9,15L19.9,15z"/>
	</g>
</g>
</svg>
