<?xml version="1.0" encoding="utf-8"?>
<!-- Generator: Adobe Illustrator 24.0.2, SVG Export Plug-In . SVG Version: 6.00 Build 0)  -->
<svg version="1.1" id="Layer_3" xmlns="http://www.w3.org/2000/svg" xmlns:xlink="http://www.w3.org/1999/xlink" x="0px" y="0px"
	 viewBox="0 0 32 32" style="enable-background:new 0 0 32 32;" xml:space="preserve">
<style type="text/css">
	.st0{fill:#0A0A0A;}
</style>
<g>
	<path class="st0" d="M29,6.8l-7-1.9c-1.1-0.3-2.3-0.1-3.3,0.4L2.6,14.7C2.1,15,1.8,15.4,1.6,16c-0.1,0.5-0.1,1.1,0.2,1.5l5.6,9.7v0
		c0.3,0.5,0.7,0.8,1.2,0.9c0.5,0.1,1.1,0.1,1.5-0.2l16.4-9.5c0.9-0.6,1.6-1.5,2-2.6l1.8-6.6c0.1-0.5,0.1-1.1-0.2-1.5
		C29.9,7.3,29.5,7,29,6.8L29,6.8z M29.5,9.1l-1.8,6.6c-0.3,0.8-0.8,1.5-1.6,2L9.8,27.2h0c-0.3,0.2-0.6,0.2-0.9,0.1
		c-0.3-0.1-0.5-0.3-0.7-0.5L2.6,17c-0.1-0.3-0.2-0.6-0.1-0.9c0.1-0.3,0.3-0.5,0.5-0.7l16.1-9.4c0.8-0.4,1.7-0.5,2.6-0.3l7,1.9
		C29,7.8,29.3,8,29.4,8.2C29.6,8.5,29.6,8.8,29.5,9.1L29.5,9.1z"/>
	<path class="st0" d="M26.8,8.7c-0.5-0.3-1.1-0.4-1.6-0.2c-0.5,0.2-1,0.6-1.2,1.2c-0.2,0.5-0.1,1.1,0.3,1.6c0.3,0.5,0.9,0.7,1.5,0.7
		c0.1,0,0.2,0,0.3,0c0.5-0.1,0.9-0.3,1.2-0.7c0.3-0.4,0.4-0.9,0.3-1.3C27.4,9.4,27.2,9,26.8,8.7L26.8,8.7z M26.5,10.7L26.5,10.7
		c-0.2,0.3-0.5,0.4-0.8,0.4c-0.3,0-0.6-0.2-0.7-0.5c-0.1-0.3-0.1-0.6,0.1-0.9l0,0c0.1-0.2,0.4-0.3,0.6-0.4c0,0,0.1,0,0.2,0
		c0.2,0,0.4,0.1,0.5,0.2c0.2,0.1,0.3,0.4,0.4,0.6C26.7,10.3,26.6,10.5,26.5,10.7L26.5,10.7z"/>
	<path class="st0" d="M20.7,8.5l-0.2-0.4c-0.1-0.1-0.2-0.2-0.3-0.2c-0.1,0-0.2,0-0.3,0.1c-0.1,0.1-0.2,0.2-0.2,0.3
		c0,0.1,0,0.2,0.1,0.3L19.9,9v0c0.1,0.1,0.2,0.2,0.3,0.2c0.1,0,0.2,0,0.3-0.1c0.1-0.1,0.2-0.2,0.2-0.3C20.8,8.7,20.8,8.6,20.7,8.5z"
		/>
	<path class="st0" d="M21.6,9.8l-0.2-0.4h0c-0.1-0.2-0.4-0.3-0.6-0.1c-0.2,0.1-0.3,0.4-0.1,0.6l0.2,0.4v0c0.1,0.2,0.4,0.3,0.6,0.1
		C21.6,10.3,21.7,10,21.6,9.8L21.6,9.8z"/>
	<path class="st0" d="M24.1,13.8l-0.2-0.4c-0.1-0.2-0.4-0.3-0.6-0.1c-0.2,0.1-0.3,0.4-0.1,0.6l0.2,0.4c0.1,0.2,0.4,0.3,0.6,0.1
		C24.2,14.3,24.3,14,24.1,13.8z"/>
	<path class="st0" d="M22.4,11.2l-0.2-0.4c-0.1-0.2-0.4-0.3-0.6-0.1c-0.2,0.1-0.3,0.4-0.1,0.6l0.2,0.4c0.1,0.2,0.4,0.3,0.6,0.1
		C22.5,11.6,22.6,11.4,22.4,11.2z"/>
	<path class="st0" d="M24.7,14.8c-0.1-0.2-0.4-0.3-0.6-0.1c-0.2,0.1-0.3,0.4-0.1,0.6l0.2,0.4v0c0.1,0.2,0.4,0.3,0.6,0.1
		c0.2-0.1,0.3-0.4,0.1-0.6L24.7,14.8z"/>
	<path class="st0" d="M23.3,12.5L23,12.1c-0.1-0.2-0.4-0.3-0.6-0.1c-0.2,0.1-0.3,0.4-0.1,0.6l0.2,0.4c0.1,0.2,0.4,0.3,0.6,0.1
		C23.4,13,23.4,12.7,23.3,12.5z"/>
	<path class="st0" d="M9.3,20.8L9,20.5c-0.1-0.2-0.4-0.3-0.6-0.1c-0.2,0.1-0.3,0.4-0.1,0.6l0.2,0.4v0c0.1,0.2,0.4,0.3,0.6,0.1
		C9.4,21.3,9.4,21,9.3,20.8L9.3,20.8z"/>
	<path class="st0" d="M7.6,18.2l-0.2-0.4v0c-0.1-0.2-0.4-0.3-0.6-0.1s-0.3,0.4-0.1,0.6l0.2,0.4v0c0.1,0.2,0.4,0.3,0.6,0.1
		C7.6,18.7,7.7,18.4,7.6,18.2z"/>
	<path class="st0" d="M8.4,19.5l-0.2-0.4C8,18.9,7.8,18.9,7.6,19c-0.2,0.1-0.3,0.4-0.1,0.6L7.7,20v0c0.1,0.2,0.4,0.3,0.6,0.1
		C8.5,20,8.6,19.7,8.4,19.5L8.4,19.5z"/>
	<path class="st0" d="M6.7,16.9l-0.2-0.4v0c-0.1-0.1-0.2-0.2-0.3-0.2c-0.1,0-0.2,0-0.3,0.1c-0.1,0.1-0.2,0.2-0.2,0.3
		c0,0.1,0,0.2,0.1,0.3L6,17.3c0.1,0.1,0.2,0.2,0.3,0.2c0.1,0,0.2,0,0.3-0.1c0.1-0.1,0.2-0.2,0.2-0.3C6.8,17.1,6.8,17,6.7,16.9z"/>
	<path class="st0" d="M10.1,22.2l-0.2-0.4c-0.1-0.2-0.4-0.3-0.6-0.1c-0.2,0.1-0.3,0.4-0.1,0.6l0.2,0.4c0.1,0.2,0.4,0.3,0.6,0.1
		C10.2,22.7,10.3,22.4,10.1,22.2z"/>
	<path class="st0" d="M10.7,23.1c-0.1-0.2-0.4-0.3-0.6-0.1c-0.2,0.1-0.3,0.4-0.1,0.6l0.2,0.4c0.1,0.2,0.4,0.3,0.6,0.1
		c0.2-0.1,0.3-0.4,0.1-0.6L10.7,23.1z"/>
	<path class="st0" d="M14.9,13.6c0-0.4-0.2-0.8-0.5-1.1c-0.3-0.3-0.7-0.5-1.1-0.5c-0.4,0-0.8,0.2-1.1,0.5c-0.3,0.3-0.5,0.7-0.5,1.1
		s0.2,0.8,0.5,1.1c0.3,0.3,0.7,0.5,1.1,0.5c0.4,0,0.8-0.2,1.1-0.5C14.7,14.4,14.9,14,14.9,13.6L14.9,13.6z M12.6,13.6
		c0-0.3,0.2-0.5,0.4-0.6c0.3-0.1,0.5,0,0.7,0.1c0.2,0.2,0.3,0.5,0.1,0.7c-0.1,0.3-0.4,0.4-0.6,0.4C12.9,14.2,12.6,13.9,12.6,13.6
		L12.6,13.6z"/>
	<path class="st0" d="M16.9,16.9c-0.4,0-0.8,0.2-1.1,0.5c-0.3,0.3-0.5,0.7-0.5,1.1c0,0.4,0.2,0.8,0.5,1.1c0.3,0.3,0.7,0.5,1.1,0.5
		s0.8-0.2,1.1-0.5c0.3-0.3,0.5-0.7,0.5-1.1c0-0.4-0.2-0.8-0.5-1.1C17.7,17.1,17.3,16.9,16.9,16.9L16.9,16.9z M16.9,19.2
		c-0.3,0-0.5-0.2-0.6-0.4c-0.1-0.3,0-0.5,0.1-0.7c0.2-0.2,0.5-0.3,0.7-0.1c0.3,0.1,0.4,0.4,0.4,0.6C17.6,18.9,17.3,19.2,16.9,19.2
		L16.9,19.2z"/>
	<path class="st0" d="M17.6,12.5c-0.2-0.1-0.5-0.1-0.6,0.1l-4.5,6.3c-0.1,0.1-0.1,0.2-0.1,0.3c0,0.1,0.1,0.2,0.2,0.3
		c0.1,0.1,0.2,0.1,0.3,0.1c0.1,0,0.2-0.1,0.3-0.2l4.5-6.3C17.9,12.9,17.8,12.7,17.6,12.5L17.6,12.5z"/>
</g>
</svg>
