<?xml version="1.0" encoding="utf-8"?>
<!-- Generator: Adobe Illustrator 24.0.2, SVG Export Plug-In . SVG Version: 6.00 Build 0)  -->
<svg version="1.1" id="Layer_3" xmlns="http://www.w3.org/2000/svg" xmlns:xlink="http://www.w3.org/1999/xlink" x="0px" y="0px"
	 viewBox="0 0 32 32" style="enable-background:new 0 0 32 32;" xml:space="preserve">
<style type="text/css">
	.st0{fill:#0A0A0A;}
</style>
<path class="st0" d="M30.2,17.8c-0.2-0.2-0.3-0.4-0.4-0.6c-0.1-0.2-0.1-0.5-0.1-0.8c0-0.5,0-1-0.3-1.5c-0.3-0.4-0.9-0.6-1.3-0.8
	c-0.3-0.1-0.6-0.2-0.7-0.3c-0.2-0.1-0.3-0.3-0.5-0.6c-0.3-0.4-0.6-0.9-1.1-1c-0.5-0.2-1,0-1.5,0.2c-0.6,0.2-1,0.2-1.6,0
	c-0.2-0.1-0.5-0.2-0.7-0.2V7.8v0v0c0-0.1,0-0.1-0.1-0.2c0,0,0,0,0,0l-3-5.4c-0.1-0.2-0.2-0.2-0.4-0.2H9.4l-4.7,0
	C4.6,1.9,4.4,2,4.3,2.1l-3,5.4c0,0,0,0,0,0c0,0.1-0.1,0.1-0.1,0.2v0v0v19.7c0,0.3,0.2,0.5,0.5,0.5h19.7c0.3,0,0.5-0.2,0.5-0.5v-1.2
	c0.2,0,0.5-0.1,0.7-0.2c0.6-0.2,1-0.2,1.6,0c0.3,0.1,0.7,0.2,1.1,0.2c0.1,0,0.3,0,0.4-0.1c0.5-0.2,0.9-0.6,1.1-1
	c0.2-0.2,0.3-0.5,0.5-0.6c0.2-0.1,0.4-0.2,0.7-0.3c0.5-0.1,1-0.3,1.3-0.8c0.3-0.4,0.3-1,0.3-1.5c0-0.3,0-0.6,0.1-0.8
	c0.1-0.2,0.2-0.4,0.4-0.6c0.3-0.4,0.6-0.8,0.6-1.4C30.8,18.7,30.5,18.2,30.2,17.8L30.2,17.8z M20.7,7.3h-6.3l0-4.4h3.9L20.7,7.3z
	 M13.5,2.8v10.3L12,12c-0.1-0.1-0.2-0.1-0.3-0.1c-0.1,0-0.2,0-0.3,0.1l-1.4,1.2l0-10.3L13.5,2.8z M5,2.8H9v4.4H2.6L5,2.8z M2.3,27
	V8.2H9v5.9c0,0.2,0.1,0.4,0.3,0.4c0.2,0.1,0.4,0.1,0.5-0.1l1.9-1.5l2,1.6c0.1,0.1,0.2,0.1,0.3,0.1c0.1,0,0.1,0,0.2,0
	c0.2-0.1,0.3-0.2,0.3-0.4V8.2H21v4.1c-0.4,0.2-0.7,0.6-1,1c-0.2,0.2-0.3,0.5-0.5,0.6c-0.2,0.1-0.4,0.2-0.7,0.3
	c-0.5,0.1-1,0.3-1.3,0.8c-0.3,0.4-0.3,1-0.3,1.5c0,0.3,0,0.6-0.1,0.8c-0.1,0.2-0.2,0.4-0.4,0.6c-0.3,0.4-0.6,0.8-0.6,1.4
	c0,0.6,0.3,1,0.6,1.4c0.2,0.2,0.3,0.4,0.4,0.6c0.1,0.2,0.1,0.5,0.1,0.8c0,0.5,0,1,0.3,1.5c0.3,0.4,0.9,0.6,1.3,0.8
	c0.3,0.1,0.6,0.2,0.7,0.3c0.2,0.1,0.3,0.3,0.5,0.6c0.3,0.4,0.5,0.8,1,1V27L2.3,27z M29.4,20.1c-0.2,0.3-0.4,0.6-0.5,0.9
	c-0.1,0.4-0.1,0.7-0.1,1.1c0,0.4,0,0.7-0.1,0.9c-0.1,0.2-0.5,0.3-0.8,0.4c-0.3,0.1-0.7,0.2-1,0.4c-0.3,0.2-0.5,0.5-0.7,0.8
	c-0.2,0.3-0.4,0.6-0.7,0.7c-0.2,0.1-0.6,0-0.9-0.2c-0.3-0.1-0.7-0.2-1.1-0.2c-0.4,0-0.7,0.1-1.1,0.2c-0.3,0.1-0.7,0.2-0.9,0.2
	c-0.2-0.1-0.4-0.4-0.7-0.7c-0.2-0.3-0.4-0.6-0.7-0.8c-0.3-0.2-0.7-0.3-1-0.4c-0.4-0.1-0.7-0.2-0.8-0.4c-0.1-0.2-0.1-0.5-0.1-0.9
	c0-0.4,0-0.7-0.1-1.1c-0.1-0.3-0.3-0.6-0.5-0.9c-0.2-0.3-0.4-0.6-0.4-0.8c0-0.2,0.2-0.5,0.4-0.8c0.2-0.3,0.4-0.6,0.5-0.9
	c0.1-0.4,0.1-0.7,0.1-1.1c0-0.4,0-0.7,0.1-0.9c0.1-0.2,0.5-0.3,0.8-0.4c0.3-0.1,0.7-0.2,1-0.4c0.3-0.2,0.5-0.5,0.7-0.8
	c0.2-0.3,0.4-0.6,0.7-0.7c0.2-0.1,0.6,0,0.9,0.2c0.3,0.1,0.7,0.2,1.1,0.2c0.4,0,0.7-0.1,1.1-0.2c0.3-0.1,0.7-0.2,0.9-0.2
	c0.2,0.1,0.4,0.4,0.7,0.7c0.2,0.3,0.4,0.6,0.7,0.8c0.3,0.2,0.7,0.3,1,0.4c0.4,0.1,0.7,0.2,0.8,0.4c0.1,0.2,0.1,0.5,0.1,0.9
	c0,0.4,0,0.7,0.1,1.1c0.1,0.3,0.3,0.6,0.5,0.9c0.2,0.3,0.4,0.6,0.4,0.8C29.9,19.5,29.7,19.8,29.4,20.1L29.4,20.1z"/>
<path class="st0" d="M25.7,17.4h-4l1-0.6c0.2-0.1,0.3-0.4,0.2-0.7c-0.1-0.2-0.4-0.3-0.7-0.2l-2.5,1.5c-0.1,0.1-0.2,0.2-0.2,0.4
	c0,0.2,0.1,0.3,0.2,0.4L22,20c0.1,0.1,0.2,0.1,0.3,0.1c0.1,0,0.3-0.1,0.4-0.2c0.2-0.2,0.1-0.5-0.1-0.7l-1.2-0.8h4.3
	c0.9,0,1.6,0.7,1.6,1.6c0,0.9-0.7,1.6-1.6,1.6l-5.2,0c-0.3,0-0.5,0.2-0.5,0.5s0.2,0.5,0.5,0.5h5.2c1.4,0,2.5-1.1,2.5-2.5
	S27.1,17.4,25.7,17.4L25.7,17.4z"/>
</svg>
