<?xml version="1.0" encoding="utf-8"?>
<!-- Generator: Adobe Illustrator 24.0.2, SVG Export Plug-In . SVG Version: 6.00 Build 0)  -->
<svg version="1.1" xmlns="http://www.w3.org/2000/svg" xmlns:xlink="http://www.w3.org/1999/xlink" x="0px" y="0px"
	 viewBox="0 0 32 32" style="enable-background:new 0 0 32 32;" xml:space="preserve">
<style type="text/css">
	.st0{fill:#0A0A0A;}
</style>
<g id="Layer_1">
</g>
<g id="guids">
</g>
<g id="search">
	<path class="st0" d="M14.5,2C7.6,2,2,7.6,2,14.5C2,21.4,7.6,27,14.5,27c3,0,5.8-1.1,8-2.9l5.6,5.6c0.4,0.4,1.2,0.4,1.6,0
		c0.4-0.4,0.4-1.2,0-1.6l-5.6-5.6c1.8-2.2,2.9-5,2.9-8C27,7.6,21.4,2,14.5,2L14.5,2z M14.5,4.3c5.7,0,10.2,4.6,10.2,10.2
		c0,5.7-4.6,10.2-10.2,10.2c-5.7,0-10.2-4.6-10.2-10.2C4.3,8.8,8.8,4.3,14.5,4.3L14.5,4.3z"/>
</g>
</svg>
