<svg width="60" height="61" viewBox="0 0 60 61" fill="none" xmlns="http://www.w3.org/2000/svg">
<path d="M23.4145 0.304688C17.7521 0.304688 13.1708 4.88597 13.1708 10.5483V14.9389H5.12176C4.66699 14.9455 4.42863 15.2864 4.38984 15.6019L0.731295 59.5044C0.693015 59.9096 1.05591 60.3067 1.46321 60.3047H45.3657C45.773 60.3047 46.1354 59.9096 46.0976 59.5044L45.9149 57.3781H44.4516L44.566 58.8414H2.26407L5.80828 16.4023H13.1714V20.8611C11.5084 21.2036 10.2448 22.6909 10.2448 24.4514C10.2448 26.4633 11.8914 28.1099 13.9033 28.1099C15.9153 28.1099 17.5619 26.4633 17.5619 24.4514C17.5619 22.6909 16.2981 21.2041 14.6353 20.8611V16.4023H32.1963V20.7928H33.6596V16.4023H41.0227L41.3886 20.7928H42.8749L42.439 15.602C42.4054 15.2422 42.0685 14.9375 41.7071 14.939H33.6581V10.5485C33.6581 4.8861 29.0768 0.304818 23.4144 0.304818L23.4145 0.304688ZM23.4145 1.76797C28.2913 1.76797 32.1948 5.67151 32.1948 10.5483V14.9389H14.6338V10.5483C14.6338 5.67151 18.5374 1.76797 23.4142 1.76797H23.4145ZM13.9021 22.2558C15.123 22.2558 16.0974 23.2302 16.0974 24.4511C16.0974 25.672 15.123 26.6463 13.9021 26.6463C12.6812 26.6463 11.7069 25.672 11.7069 24.4511C11.7069 23.2302 12.6812 22.2558 13.9021 22.2558ZM28.5363 22.9188L25.6097 55.114C25.5714 55.5193 25.9343 55.9163 26.3416 55.9143H58.5368C58.9441 55.9143 59.3065 55.5193 59.2687 55.114L56.3422 22.9188C56.3085 22.559 55.9716 22.2543 55.6102 22.2558H29.2687C28.814 22.263 28.5874 22.6146 28.5368 22.9188H28.5363ZM29.9313 23.7191H54.9465L57.7364 54.4509H27.1419L29.9313 23.7191ZM35.1215 26.6457C34.7173 26.6457 34.3896 26.9734 34.3896 27.3776V30.3042C34.3896 34.7508 37.992 38.3532 42.4387 38.3532C46.8854 38.3532 50.4877 34.7509 50.4877 30.3042V27.3776C50.4877 26.9734 50.1601 26.6457 49.7558 26.6457C49.3516 26.6457 49.0239 26.9734 49.0239 27.3776V30.3042C49.0239 33.9653 46.0993 36.8893 42.4388 36.8893C38.7776 36.8893 35.8537 33.9647 35.8537 30.3042V27.3776C35.8537 26.9734 35.526 26.6457 35.1218 26.6457H35.1215Z" fill="#0A0A0A"/>
</svg>
