<svg width="261" height="120" viewBox="0 0 261 120" fill="none" xmlns="http://www.w3.org/2000/svg">
<path d="M29.0727 79.2821C26.8285 81.0363 23.9552 81.9219 20.4359 81.9219C16.3385 81.9219 13.4143 81.0193 11.6971 79.231C9.97994 77.4257 9.11286 74.7348 9.11286 71.1413V37.1134C9.11286 36.8239 8.85783 36.6706 8.34778 36.6706H0.221021C0.153014 36.6706 0.085008 36.5514 0.0510048 36.2789C0.0170016 36.0234 0 35.7509 0 35.4444C0 35.0697 0.0170016 34.7461 0.0510048 34.4566C0.085008 34.1671 0.136013 34.0138 0.221021 34.0138H8.34778C8.85783 34.0138 9.11286 33.8605 9.11286 33.571V24.3232C10.354 24.255 11.5611 23.8463 12.7342 23.114C13.9073 22.3816 14.9444 21.513 15.8625 20.5253C16.7806 19.5375 17.5286 18.4986 18.1237 17.4426C18.7018 16.3867 19.1098 15.45 19.3308 14.6325C19.4838 14.4793 20.2829 14.4793 21.745 14.6325V33.571C21.745 33.8605 22.1191 34.0138 22.8501 34.0138H32.422C32.49 34.0138 32.5241 34.1671 32.5241 34.4566C32.5241 34.7461 32.5241 35.0867 32.5241 35.4444C32.5241 35.7339 32.5241 36.0405 32.5241 36.33C32.5241 36.5514 32.49 36.6536 32.422 36.6536H22.8501C22.1191 36.6536 21.745 36.8069 21.745 37.0964V74.8711C21.745 75.8929 22.0851 76.6934 22.7821 77.2384C23.4792 77.7834 24.3803 78.0559 25.4684 78.0559C27.0155 78.0559 28.3077 77.3917 29.3788 76.0803C30.4329 74.7519 31.3339 73.0658 32.065 71.0221C31.997 71.0221 32.048 71.0732 32.235 71.1924C32.422 71.2946 32.6261 71.4308 32.8471 71.5841C33.0681 71.7374 33.2551 71.8566 33.3911 71.9758C33.5441 72.078 33.6122 72.1802 33.6122 72.2483C32.8301 75.1776 31.3169 77.5279 29.0727 79.2821Z" fill="#080810"/>
<path d="M83.9893 80.4383C82.2381 81.358 80.2489 81.8178 78.0557 81.8178C76.8146 81.8178 75.5905 81.6305 74.3664 81.2728C73.1593 80.8981 72.0202 80.3872 70.9661 79.723C69.895 79.0588 69.0279 78.2924 68.3308 77.4068C67.6337 76.5212 67.1747 75.5674 66.9537 74.5456C66.1546 76.8277 64.8285 78.599 62.9923 79.8933C61.1561 81.1706 58.8099 81.8178 55.9536 81.8178C53.9815 81.8178 51.9923 81.6134 50.0201 81.2047C48.0479 80.796 46.2457 80.1658 44.6306 79.2802C43.0154 78.3946 41.7063 77.2195 40.6692 75.7548C39.6491 74.2901 39.1221 72.4508 39.1221 70.2538C39.1221 67.3926 39.7511 65.0593 40.9922 63.254C42.2334 61.4488 43.7295 60.0522 45.4467 59.0644C47.1638 58.0766 48.949 57.3954 50.7852 57.0207C52.6213 56.646 54.1175 56.3906 55.2906 56.2543C58.5209 55.9648 61.2241 55.6242 63.4173 55.2665C65.6106 54.8918 66.7157 54.1254 66.7157 52.9503V44.5881C66.7157 42.3911 66.5626 40.671 66.2736 39.4618C65.9846 38.2526 65.5425 37.3499 64.9475 36.7709C64.3524 36.1918 63.6384 35.8342 62.8053 35.732C61.9552 35.6298 61.0201 35.5617 60 35.5617C59.269 35.5617 58.5379 35.5617 57.8068 35.5617C57.0758 35.5617 56.4297 35.6468 55.8856 35.8342C55.3416 36.0215 54.8995 36.3451 54.5595 36.822C54.2365 37.2988 54.0665 38.0482 54.0665 39.0871C54.0665 40.1089 54.2195 40.9264 54.5085 41.5055C54.7975 42.1016 54.9506 42.868 54.9506 43.8217C54.9506 44.9968 54.5255 46.0187 53.6924 46.9043C52.8424 47.7899 51.3972 48.2327 49.357 48.2327C47.4528 48.2327 46.0587 47.6707 45.1746 46.5296C44.2906 45.3886 43.8485 44.1283 43.8485 42.7317C43.8485 41.6247 44.2566 40.5007 45.0556 39.3255C45.8547 38.1504 46.9938 37.0945 48.4559 36.1237C49.9181 35.17 51.6182 34.4036 53.5734 33.8075C55.5116 33.2284 57.6538 32.9219 60 32.9219C65.9336 32.9219 70.694 34.5228 74.2984 37.7076C77.8857 40.9094 79.6879 45.9506 79.6879 52.8481V74.3242C79.6879 76.8277 80.4869 78.071 82.1021 78.071C83.0542 78.071 83.8193 77.8666 84.4143 77.4579C84.9924 77.0491 85.3664 76.5552 85.5194 75.9762C85.5194 75.9081 85.6044 75.9421 85.7914 76.0784C85.9785 76.2317 86.1825 76.3849 86.4035 76.5723C86.6245 76.7596 86.8115 76.947 86.9476 77.1173C87.1006 77.3046 87.1686 77.4238 87.1686 77.509C86.8115 78.5479 85.7404 79.5186 83.9893 80.4383ZM66.8347 56.5949C65.4405 57.3954 63.9954 57.9063 62.4993 58.0766C61.0031 58.264 59.405 58.4683 57.7218 58.6897C56.7017 58.9112 55.8346 59.1666 55.1376 59.4561C54.4405 59.7457 53.8795 60.2566 53.4374 61.006C52.9954 61.7383 52.6893 62.8453 52.5023 64.31C52.3153 65.7746 52.2303 67.7673 52.2303 70.2538C52.2303 71.4289 52.2643 72.5359 52.3323 73.5578C52.4003 74.5796 52.6213 75.4823 52.9954 76.2487C53.3694 77.0151 53.9305 77.6282 54.6955 78.071C55.4606 78.5138 56.5827 78.7352 58.0448 78.7352C60.6801 78.7352 62.8053 77.4919 64.4204 74.9884C66.0356 72.4848 66.8347 69.4874 66.8347 65.962V56.5949V56.5949Z" fill="#080810"/>
<path d="M136.421 41.1779C135.979 41.1779 135.503 41.2801 134.993 41.5015C134.483 41.7229 133.956 42.1487 133.394 42.7618C132.85 43.3919 132.238 44.3286 131.575 45.5719C132.816 47.0366 133.65 48.4842 134.041 49.9148C134.449 51.3454 134.653 53.0826 134.653 55.1433C134.653 57.5617 134.16 59.8438 133.173 61.9727C132.187 64.1016 130.827 65.975 129.11 67.5929C127.393 69.2109 125.353 70.4712 123.006 71.3908C120.66 72.3105 118.178 72.7704 115.526 72.7704C112.38 72.7704 109.609 72.2254 107.229 71.1184C104.849 70.0113 103.115 68.9895 102.009 68.0357C101.125 68.7 100.411 69.5345 99.8673 70.5734C99.3232 71.5952 99.0512 72.9577 99.0512 74.6438C99.0512 76.0403 99.2212 77.1133 99.5443 77.8967C99.8673 78.6631 100.394 79.2592 101.091 79.6509C101.788 80.0596 102.69 80.298 103.778 80.3662C104.883 80.4343 106.192 80.4684 107.739 80.4684H122.904C129.348 80.4684 134.551 82.0522 138.512 85.203C142.473 88.3537 144.446 93.0202 144.446 99.1854C144.446 102.643 143.544 105.64 141.759 108.212C139.957 110.783 137.696 112.946 134.942 114.701C132.187 116.455 129.178 117.783 125.88 118.669C122.581 119.554 119.402 119.997 116.308 119.997C112.346 119.997 108.759 119.588 105.529 118.788C102.299 117.988 99.5273 116.898 97.181 115.535C94.8348 114.173 93.0156 112.572 91.7405 110.749C90.4654 108.91 89.8193 106.969 89.8193 104.908C89.8193 103.358 90.1254 101.876 90.7544 100.446C91.3835 99.0151 92.2166 97.6867 93.2877 96.4775C94.3418 95.2683 95.6169 94.2123 97.079 93.3438C98.5412 92.4581 100.122 91.7939 101.805 91.3682C98.6602 90.6358 96.0929 89.1882 94.1037 87.0253C92.1316 84.8623 91.1285 82.3758 91.1285 79.5998C91.1285 76.2958 92.0295 73.6389 93.8147 71.6122C95.6169 69.5856 97.8611 67.7462 100.581 66.0431C99.3402 64.5785 98.3031 62.9094 97.5041 61.036C96.705 59.1626 96.297 57.204 96.297 55.1433C96.297 52.7249 96.79 50.4257 97.7761 48.2628C98.7622 46.0999 100.139 44.2094 101.89 42.5915C103.642 40.9735 105.699 39.7132 108.045 38.7936C110.391 37.8739 112.874 37.4141 115.526 37.4141C118.756 37.4141 121.612 38.0101 124.095 39.1683C126.577 40.3434 128.668 41.9613 130.368 44.005C131.388 42.0976 132.731 40.5137 134.381 39.2704L136.421 41.1779ZM135.809 99.526C135.265 98.0954 134.381 96.8181 133.173 95.7111C131.966 94.6041 130.419 93.7014 128.549 93.0031C126.679 92.3049 124.384 91.9472 121.68 91.9472H106.736C106.889 91.9472 106.804 91.9472 106.515 91.9472C106.294 91.9472 106.039 91.9472 105.75 91.9472C105.461 91.9472 105.155 91.9472 104.866 91.9472C104.645 91.9472 104.611 91.9472 104.764 91.9472C103.523 92.6796 102.503 93.3778 101.737 94.042C100.972 94.7062 100.343 95.4726 99.8673 96.3582C99.3913 97.2439 99.0682 98.2487 98.8812 99.4068C98.6942 100.548 98.6092 101.961 98.6092 103.665C98.6092 106.611 98.9832 108.995 99.7143 110.801C100.445 112.606 101.55 114.002 103.013 115.007C104.475 115.995 106.311 116.659 108.504 117C110.697 117.323 113.299 117.494 116.308 117.494C119.011 117.494 121.595 117.255 124.061 116.778C126.509 116.302 128.685 115.501 130.538 114.394C132.408 113.287 133.888 111.89 134.993 110.187C136.098 108.484 136.642 106.424 136.642 103.988C136.642 102.455 136.37 100.957 135.809 99.526ZM122.513 46.3042C122.105 44.1413 121.391 42.5404 120.371 41.5185C119.776 40.9395 119.096 40.5478 118.28 40.3604C117.481 40.1731 116.563 40.0879 115.526 40.0879C114.642 40.0879 113.809 40.1731 112.993 40.3604C112.193 40.5478 111.496 40.9224 110.901 41.5185C109.881 42.5404 109.099 44.1413 108.589 46.3042C108.079 48.4672 107.824 51.3965 107.824 55.0581C107.824 59.2478 108.079 62.3133 108.589 64.2549C109.099 66.1964 109.864 67.644 110.901 68.5978C111.479 69.262 112.176 69.6878 112.993 69.8581C113.792 70.0454 114.642 70.1306 115.526 70.1306C116.546 70.1306 117.464 70.0454 118.28 69.8581C119.079 69.6707 119.776 69.2449 120.371 68.5978C121.323 67.644 122.02 66.1964 122.462 64.2549C122.904 62.3133 123.126 59.2478 123.126 55.0581C123.126 51.3795 122.921 48.4672 122.513 46.3042Z" fill="#080810"/>
<path d="M192.475 19.8263C192.033 19.8263 191.557 19.9285 191.047 20.1499C190.537 20.3713 190.01 20.7971 189.449 21.4102C188.905 22.0404 188.293 22.9771 187.63 24.2203C188.871 25.685 189.704 27.1326 190.095 28.5632C190.503 29.9938 190.707 31.731 190.707 33.7917C190.707 36.2101 190.214 38.4923 189.228 40.6211C188.242 42.75 186.882 44.6234 185.165 46.2414C183.448 47.8593 181.407 49.1196 179.061 50.0393C176.715 50.9589 174.233 51.4188 171.58 51.4188C168.435 51.4188 165.664 50.8738 163.284 49.7668C160.903 48.6598 159.169 47.6379 158.064 46.6842C157.18 47.3484 156.466 48.1829 155.922 49.2218C155.378 50.2436 155.106 51.6061 155.106 53.2922C155.106 54.6887 155.276 55.7617 155.599 56.5451C155.922 57.3115 156.449 57.9076 157.146 58.2993C157.843 58.708 158.744 58.9465 159.832 59.0146C160.937 59.0827 162.247 59.1168 163.794 59.1168H178.959C185.403 59.1168 190.605 60.7007 194.567 63.8514C198.528 67.0021 200.5 71.6686 200.5 77.8338C200.5 81.2911 199.599 84.2885 197.814 86.8602C196.012 89.4319 193.75 91.5948 190.996 93.349C188.242 95.1032 185.233 96.4316 181.934 97.3172C178.636 98.2028 175.457 98.6456 172.362 98.6456C168.401 98.6456 164.814 98.2369 161.583 97.4364C158.353 96.636 155.582 95.546 153.236 94.1835C150.889 92.8211 149.07 91.2201 147.795 89.3978C146.52 87.5585 145.874 85.617 145.874 83.5562C145.874 82.0064 146.18 80.5247 146.809 79.0941C147.438 77.6635 148.271 76.3351 149.342 75.1259C150.396 73.9167 151.672 72.8608 153.134 71.9922C154.596 71.1066 156.177 70.4424 157.86 70.0166C154.715 69.2843 152.148 67.8366 150.158 65.6737C148.186 63.5108 147.183 61.0242 147.183 58.2482C147.183 54.9442 148.084 52.2874 149.869 50.2607C151.672 48.234 153.916 46.3946 156.636 44.6915C155.395 43.2269 154.358 41.5579 153.559 39.6844C152.76 37.811 152.352 35.8525 152.352 33.7917C152.352 31.3733 152.845 29.0742 153.831 26.9112C154.817 24.7483 156.194 22.8579 157.945 21.2399C159.696 19.622 161.754 18.3617 164.1 17.442C166.446 16.5223 168.928 16.0625 171.58 16.0625C174.811 16.0625 177.667 16.6586 180.149 17.8167C182.631 18.9918 184.723 20.6098 186.423 22.6535C187.443 20.746 188.786 19.1621 190.435 17.9189L192.475 19.8263ZM191.88 78.1574C191.336 76.7268 190.452 75.4495 189.245 74.3425C188.038 73.2354 186.491 72.3328 184.621 71.6345C182.75 70.9363 180.455 70.5786 177.752 70.5786H162.808C162.961 70.5786 162.876 70.5786 162.587 70.5786C162.366 70.5786 162.111 70.5786 161.822 70.5786C161.532 70.5786 161.226 70.5786 160.937 70.5786C160.716 70.5786 160.682 70.5786 160.835 70.5786C159.594 71.3109 158.574 72.0092 157.809 72.6734C157.044 73.3376 156.415 74.104 155.939 74.9896C155.463 75.8752 155.14 76.8801 154.953 78.0382C154.766 79.1793 154.681 80.5928 154.681 82.2959C154.681 85.2423 155.055 87.6266 155.786 89.4319C156.517 91.2372 157.622 92.6337 159.084 93.6385C160.546 94.6263 162.383 95.2905 164.576 95.6312C166.769 95.9548 169.37 96.1251 172.379 96.1251C175.083 96.1251 177.667 95.8866 180.132 95.4098C182.58 94.9329 184.757 94.1324 186.61 93.0254C188.48 91.9184 189.959 90.5219 191.064 88.8188C192.169 87.1157 192.713 85.0549 192.713 82.6195C192.696 81.0867 192.424 79.605 191.88 78.1574ZM178.585 24.9527C178.177 22.7897 177.463 21.1888 176.443 20.167C175.848 19.5879 175.168 19.1962 174.352 19.0089C173.553 18.8215 172.635 18.7364 171.597 18.7364C170.713 18.7364 169.88 18.8215 169.064 19.0089C168.265 19.1962 167.568 19.5709 166.973 20.167C165.953 21.1888 165.171 22.7897 164.661 24.9527C164.151 27.1156 163.896 30.0449 163.896 33.7066C163.896 37.8962 164.151 40.9618 164.661 42.9033C165.171 44.8448 165.936 46.2925 166.973 47.2462C167.551 47.9104 168.248 48.3362 169.064 48.5065C169.863 48.6938 170.713 48.779 171.597 48.779C172.618 48.779 173.536 48.6938 174.352 48.5065C175.151 48.3191 175.848 47.8934 176.443 47.2462C177.395 46.2925 178.092 44.8448 178.534 42.9033C178.976 40.9618 179.197 37.8962 179.197 33.7066C179.18 30.0279 178.976 27.1156 178.585 24.9527Z" fill="#080810"/>
<path d="M240.3 80.9312C240.079 80.9312 239.977 80.829 239.977 80.6076V75.7708C239.824 76.2136 239.45 76.7756 238.821 77.4739C238.191 78.1722 237.358 78.8534 236.287 79.5176C235.216 80.1818 233.941 80.7439 232.445 81.2207C230.949 81.6976 229.232 81.936 227.327 81.936C223.876 81.936 220.782 81.2548 218.045 79.8923C215.29 78.5298 212.944 76.7245 211.006 74.4424C209.068 72.1602 207.555 69.5715 206.5 66.6763C205.429 63.781 204.902 60.8176 204.902 57.8202C204.902 54.7376 205.548 51.7231 206.824 48.7937C208.099 45.8644 209.85 43.2076 212.043 40.8573C214.236 38.507 216.82 36.6166 219.796 35.186C222.771 33.7554 225.933 33.0401 229.3 33.0401C231.646 33.0401 233.686 33.4318 235.403 34.1982C237.12 34.9646 238.651 36.0886 239.96 37.5533V3.08261C239.96 2.79308 239.739 2.6398 239.297 2.6398H233.023C232.955 2.6398 232.887 2.52058 232.853 2.24809C232.819 1.99262 232.802 1.72013 232.802 1.4306C232.802 1.05592 232.819 0.732332 232.853 0.442805C232.887 0.153279 232.938 0 233.023 0H252.592C252.881 0 253.034 0.102186 253.034 0.323589V77.8486C253.034 78.1381 253.289 78.2914 253.799 78.2914H260.277C260.345 78.2914 260.379 78.4447 260.379 78.7342C260.379 79.0237 260.379 79.3643 260.379 79.722C260.379 80.0115 260.379 80.3181 260.379 80.6076C260.379 80.829 260.345 80.9312 260.277 80.9312H240.3ZM239.977 42.2879C239.756 41.2661 239.28 40.3464 238.549 39.5289C237.817 38.7284 236.933 38.0472 235.913 37.4852C234.893 36.9402 233.805 36.5144 232.666 36.2249C231.527 35.9354 230.405 35.7821 229.317 35.7821C227.77 35.7821 226.511 35.9524 225.525 36.276C224.539 36.5996 223.57 37.1786 222.618 37.9791C221.156 39.4437 220.119 41.8451 219.541 45.2002C218.946 48.5383 218.657 52.779 218.657 57.9223C218.657 63.1338 218.946 67.2894 219.541 70.372C220.119 73.4546 221.156 75.7367 222.618 77.2014C223.06 77.6442 223.4 78.0019 223.655 78.3084C223.91 78.5979 224.182 78.8194 224.471 78.9726C224.76 79.1259 225.117 79.2281 225.508 79.2962C225.916 79.3643 226.511 79.3984 227.327 79.3984C229.742 79.3984 231.782 79.0919 233.431 78.4617C235.08 77.8316 236.372 77.0311 237.341 76.0433C238.293 75.0555 238.974 73.9826 239.382 72.8585C239.79 71.7174 239.994 70.6445 239.994 69.6056V42.2879H239.977Z" fill="#080810"/>
</svg>
