<svg width="54" height="30" viewBox="0 0 54 30" fill="none" xmlns="http://www.w3.org/2000/svg">
<rect opacity="0.3" width="54" height="30" fill="white"/>
<path fill-rule="evenodd" clip-rule="evenodd" d="M8.29409 8.13753L5.23553 19.0302L16.0937 19.1063L19.0762 8.13753H21.8289L18.253 20.8892C18.116 21.3761 17.5946 21.7717 17.0889 21.7717H3.17112C2.3271 21.7717 1.82697 21.1124 2.05522 20.3008L5.46581 8.13753H8.29409ZM41.8633 8.06145H44.616L40.7925 21.7717H37.9622L41.8633 8.06145ZM22.1353 13.7738L35.8993 13.6977L36.8174 10.803H22.8231L23.664 8.13703L38.5765 8.00008C39.5047 7.99145 40.0576 8.71019 39.8131 9.60646L38.4081 14.7416C38.1631 15.6374 37.211 16.3632 36.2828 16.3632H23.9704L22.5187 22H19.8406L22.1353 13.7738Z" fill="#5A5A5A"/>
<path fill-rule="evenodd" clip-rule="evenodd" d="M44.7632 21.7452L52.3994 14.9892L48.7823 8L44.7632 21.7452Z" fill="#018C3C"/>
<path fill-rule="evenodd" clip-rule="evenodd" d="M42.4717 21.7452L50.1079 14.9892L46.4908 8L42.4717 21.7452Z" fill="#FD7A08"/>
</svg>
