<svg width="54" height="30" viewBox="0 0 54 30" fill="none" xmlns="http://www.w3.org/2000/svg">
<rect opacity="0.3" width="54" height="30" fill="white"/>
<path d="M31.6848 2.45576L29.8419 0L18.6963 7.9934H19.9219L31.6848 2.45576Z" fill="#5A5A5A"/>
<path d="M23.7272 7.99351L37.1478 4.48848L35.7281 1.56543L22.0737 7.99331L23.7272 7.99351Z" fill="#5A5A5A"/>
<path d="M40.797 7.99305L40.1048 4.78345L37.9092 5.23752L27.3501 7.99309L40.797 7.99305Z" fill="#5A5A5A"/>
<path d="M35.0664 18.5616C35.0664 19.232 35.3325 19.875 35.8061 20.3496C36.2798 20.8239 36.9223 21.0912 37.5927 21.0924H43.9062V16.0396H37.5927C36.9235 16.0396 36.2816 16.3051 35.8079 16.778C35.3343 17.2508 35.0676 17.8922 35.0664 18.5615V18.5616ZM39.7355 18.5616C39.7367 19.0112 39.5589 19.4426 39.2416 19.7611C38.9244 20.0796 38.4935 20.2587 38.0439 20.2591C37.5944 20.2594 37.1632 20.0811 36.8453 19.7633C36.5274 19.4454 36.3491 19.0142 36.3495 18.5646C36.3499 18.115 36.529 17.6842 36.8474 17.3669C37.1657 17.0494 37.5974 16.8719 38.0469 16.8731C38.4947 16.8731 38.9241 17.051 39.2408 17.3677C39.5575 17.6844 39.7355 18.1139 39.7355 18.5616L39.7355 18.5616Z" fill="#5A5A5A"/>
<path d="M42.5348 8.90552H11.3711C11.0074 8.90788 10.6594 9.05373 10.4025 9.31117C10.1458 9.56882 10.0012 9.91738 10 10.2811V26.8408C10 27.205 10.1443 27.5541 10.4013 27.8119C10.6584 28.0698 11.0071 28.2152 11.3711 28.2164H42.5348C42.8987 28.2152 43.2475 28.0698 43.5045 27.8119C43.7616 27.5541 43.9058 27.2049 43.9058 26.8408V21.9911H37.5923C36.6584 22.0245 35.751 21.6769 35.0783 21.028C34.4057 20.3791 34.0258 19.4845 34.0258 18.55C34.0258 17.6155 34.4057 16.7209 35.0783 16.072C35.751 15.423 36.6584 15.0755 37.5923 15.1089H43.9058V10.2592C43.899 9.89917 43.7517 9.55631 43.4957 9.30336C43.2394 9.05064 42.8946 8.90768 42.5348 8.90552Z" fill="#4D4D4D"/>
<path d="M38.0465 19.4741C38.2884 19.4741 38.5206 19.3778 38.6917 19.2068C38.8629 19.0356 38.959 18.8035 38.959 18.5614C38.959 18.3193 38.8629 18.0872 38.6917 17.916C38.5207 17.7449 38.2884 17.6487 38.0465 17.6487C37.8044 17.6487 37.5721 17.7449 37.4011 17.916C37.2298 18.0872 37.1338 18.3193 37.1338 18.5614C37.1338 18.8035 37.2298 19.0355 37.4011 19.2068C37.5721 19.3778 37.8044 19.4741 38.0465 19.4741Z" fill="#4D4D4D"/>
</svg>
