<svg width="30" height="30" viewBox="0 0 30 30" fill="none" xmlns="http://www.w3.org/2000/svg">
<circle cx="15" cy="15" r="14.5" fill="white" stroke="#CFCFCF"/>
<path d="M15 6C10.0369 6 6 10.0369 6 15C6 19.9631 10.0369 24 15 24C19.9631 24 24 19.9631 24 15C24 10.0369 19.9631 6 15 6V6ZM14.3721 7.36039V10.1795H12.1941C12.7041 8.74212 13.4479 7.68948 14.3721 7.36039V7.36039ZM15.6279 7.36039C16.5521 7.68947 17.296 8.74212 17.8059 10.1795H15.6279V7.36039ZM12.1025 7.81824C11.6425 8.4688 11.249 9.26728 10.9384 10.1795H8.93689C9.76337 9.13998 10.8509 8.32236 12.1025 7.81824V7.81824ZM17.8976 7.81824C19.1494 8.32236 20.2368 9.13995 21.0633 10.1795H19.0618C18.7511 9.26728 18.3576 8.4688 17.8976 7.81824V7.81824ZM8.1258 11.4352H10.5786C10.368 12.3436 10.2382 13.3327 10.1993 14.3653H7.28209C7.36706 13.3152 7.66519 12.3241 8.1258 11.4352ZM11.8279 11.4352H14.3722V14.3653H11.455C11.4926 13.3372 11.6191 12.3393 11.8279 11.4352H11.8279ZM15.6282 11.4352H18.1725C18.3813 12.3393 18.5076 13.3372 18.5454 14.3653H15.6282L15.6282 11.4352ZM19.4218 11.4352H21.8746C22.3352 12.3241 22.6333 13.3153 22.7183 14.3653H19.8011C19.7621 13.3327 19.6322 12.3435 19.4218 11.4352V11.4352ZM7.28228 15.6212H10.1995C10.2373 16.6562 10.3687 17.6414 10.5788 18.5514H8.11941C7.6607 17.6621 7.36532 16.6711 7.28228 15.6212V15.6212ZM11.4552 15.6212H14.3724V18.5514H11.8281C11.6198 17.6466 11.4926 16.6496 11.4553 15.6212H11.4552ZM15.6282 15.6212H18.5454C18.5082 16.6496 18.381 17.6466 18.1725 18.5514H15.6282L15.6282 15.6212ZM19.8012 15.6212H22.7184C22.6353 16.6711 22.3398 17.6621 21.8812 18.5514H19.4219C19.632 17.6414 19.7634 16.656 19.8012 15.6212V15.6212ZM8.93053 19.8073H10.932C11.2434 20.7243 11.6404 21.5286 12.1028 22.1815C10.8476 21.676 9.75791 20.8508 8.93068 19.8073H8.93053ZM12.1877 19.8073H14.3723V22.6329C13.4465 22.3033 12.6978 21.2486 12.1877 19.8073ZM15.6282 19.8073H17.8127C17.3026 21.2484 16.5539 22.3031 15.6282 22.6329V19.8073ZM19.0686 19.8073H21.0701C20.2427 20.8509 19.1532 21.676 17.8979 22.1815C18.3602 21.5286 18.7572 20.7241 19.0686 19.8073V19.8073Z" fill="#0A0A0A"/>
</svg>
