<?xml version="1.0" encoding="utf-8"?>
<!-- Generator: Adobe Illustrator 24.0.2, SVG Export Plug-In . SVG Version: 6.00 Build 0)  -->
<svg version="1.1" id="Layer_1" xmlns="http://www.w3.org/2000/svg" xmlns:xlink="http://www.w3.org/1999/xlink" x="0px" y="0px"
	 viewBox="0 0 32 32" style="enable-background:new 0 0 32 32;" xml:space="preserve">
<style type="text/css">
	.st0{fill:#0A0A0A;}
</style>
<g id="Layer_4">
	<path class="st0" d="M20.9,2.9c-1.7,0-3.5,0.5-4.9,1.5c-1.5-1-3.1-1.5-4.9-1.5c-5,0-9.1,4.2-9.1,9.5c0,4.2,2.5,7.1,5.2,9.6l0,0
		l8.2,6.8c0.2,0.1,0.4,0.2,0.6,0.2s0.4-0.1,0.6-0.2l8.2-6.8l0,0c2.6-2.5,5.2-5.3,5.2-9.6C30,7.1,25.9,2.9,20.9,2.9L20.9,2.9z
		 M23.6,20.5L16,26.7l-7.6-6.3c-2.7-2.5-4.6-4.9-4.6-8.1C3.8,8.2,7,4.8,11,4.8c1.6,0,3.1,0.5,4.3,1.5c0.3,0.3,0.8,0.3,1.1,0
		c1.2-1,2.8-1.5,4.3-1.5c4,0,7.3,3.4,7.3,7.5C28.1,15.6,26.3,18,23.6,20.5L23.6,20.5z"/>
</g>
</svg>
